<svg id="Layer_1" data-name="Layer 1" xmlns="http://www.w3.org/2000/svg" viewBox="0 0 1920 1080"><defs><style>.cls-1{fill:#00acc1;}.cls-2{fill:#2a2b2c;}</style></defs><title>Artboard 1</title><rect class="cls-1" x="0.5" y="0.5" width="1919" height="1079"/><path d="M1919,1V1079H1V1H1919m1-1H0V1080H1920V0Z"/><g id="Hat"><polygon class="cls-2" points="736.24 166.79 697.63 164.23 697.69 163.28 733.67 165.67 625.11 63.5 476.37 53.64 502.63 78.35 584.92 155.81 688.47 162.67 688.41 163.62 584.52 156.73 584.4 156.62 501.98 79.04 473.8 52.52 625.52 62.57 625.64 62.69 736.24 166.79"/><polygon class="cls-2" points="659.14 231.62 553.91 227.03 553.78 226.9 478.86 153.13 478.99 152.83 508.61 84.81 509.48 85.19 479.99 152.91 554.32 226.1 658.53 230.64 688.02 162.92 688.89 163.3 659.14 231.62"/><rect class="cls-2" x="692.57" y="158.83" width="0.95" height="9.24" transform="translate(484.33 844.23) rotate(-86.23)"/><rect class="cls-2" x="713.4" y="145.59" width="0.95" height="16.25" transform="translate(533.44 861.31) rotate(-87.85)"/><rect class="cls-2" x="684.75" y="186.92" width="48.53" height="0.95" transform="translate(254.08 762.59) rotate(-66.46)"/><rect class="cls-2" x="722.94" y="154.35" width="0.52" height="0.95" transform="translate(292.18 755.84) rotate(-66.44)"/><path class="cls-2" d="M704.19,209.64a6.3,6.3,0,0,0-11.64-.21l-4.47,10.26,7.93-2.43,3.63,7.46,4.47-10.26A6.3,6.3,0,0,0,704.19,209.64Zm-7.07,4.8a1.71,1.71,0,1,1,2.25-.88A1.71,1.71,0,0,1,697.12,214.44Z"/></g><g id="Medal"><path class="cls-2" d="M438.05,470.74A67.09,67.09,0,1,1,463,341.38a67.09,67.09,0,0,1,37.32,87.24l-.45-.18.45.18a67,67,0,0,1-62.26,42.12Zm.06-133.23a66.16,66.16,0,1,0,24.52,4.75A66.26,66.26,0,0,0,438.11,337.51Z"/><path class="cls-2" d="M419,566l-30.67-38.3-49.05,6.57,39.7-99,1.19.47.08.15a66.15,66.15,0,0,0,77.36,31l.16,0,.85.34-.18.44Zm-30.26-39.32,30,37.45,38.55-96.17a67.09,67.09,0,0,1-77.76-31.48l-38.73,96.63Z"/><path class="cls-2" d="M423.54,417.56l7.47,3,13.61-34-7-.26.52-1.27,8.65.09-14.42,36,7.48,3-.56,1.37L423,418.93Z"/></g><g id="Notebook"><path class="cls-2" d="M176,307.73l-.13-.31L103,131.24l21.38-8.85.13.31L197.4,298.88ZM103.84,131.6l72.55,175.25,20.13-8.33L124,123.27Z"/><path class="cls-2" d="M196.63,299.2l-.13-.31L123.58,122.71l.31-.13,87.94-36.41.13.31,72.93,176.19-.31.13ZM124.46,123.07,197,298.32l87-36L211.47,87.05Z"/><path class="cls-2" d="M162.39,167.53l-12.32-29.78,53.66-22.21,12.33,29.78ZM151,138.12l11.81,28.53L215.17,145l-11.8-28.53Z"/><path class="cls-2" d="M200.83,260.4l-6.5-15.71L248,222.48l6.5,15.7Zm-5.62-15.34,6,14.45,52.42-21.69-6-14.46Z"/><rect class="cls-2" x="158.63" y="135.12" width="30.91" height="0.68" transform="translate(-38.57 76.86) rotate(-22.48)"/><rect class="cls-2" x="160.19" y="138.89" width="30.91" height="0.68" transform="translate(-39.89 77.75) rotate(-22.48)"/><rect class="cls-2" x="161.75" y="142.67" width="30.91" height="0.68" transform="translate(-41.22 78.63) rotate(-22.48)"/><rect class="cls-2" x="203.44" y="243.38" width="30.91" height="0.68" transform="translate(-76.56 102.23) rotate(-22.48)"/></g><g id="Notebook-2" data-name="Notebook"><path class="cls-2" d="M835.91,934.44l.14-.31L915.5,760.8l21,9.64-.15.31L856.94,944.08Zm79.92-172.75-79,172.42,19.81,9.08,79-172.42Z"/><path class="cls-2" d="M856.19,943.74l.14-.31,79.45-173.34.31.14,86.53,39.67-.14.3L943,983.54l-.31-.14ZM936.12,771l-79,172.42,85.61,39.24,79-172.42Z"/><path class="cls-2" d="M929.35,829l13.43-29.3L995.58,824l-13.43,29.29Zm13.77-28.4-12.87,28.07,51.57,23.64,12.87-28.07Z"/><path class="cls-2" d="M887.47,920.41,894.56,905l52.8,24.21-7.09,15.45Zm7.42-14.56-6.52,14.22,51.57,23.64,6.52-14.22Z"/><rect class="cls-2" x="960.48" y="800.32" width="0.68" height="30.91" transform="translate(-181.17 1349.19) rotate(-65.37)"/><rect class="cls-2" x="958.78" y="804.04" width="0.68" height="30.91" transform="translate(-185.54 1349.81) rotate(-65.37)"/><rect class="cls-2" x="957.07" y="807.75" width="0.68" height="30.91" transform="translate(-189.91 1350.43) rotate(-65.37)"/><rect class="cls-2" x="911.65" y="906.84" width="0.68" height="30.91" transform="translate(-306.47 1366.93) rotate(-65.37)"/></g><g id="Ruler"><path class="cls-2" d="M705.08,564.77l-.14-.35-82.43-215.1,29.32-11.24.14.35,82.43,215.1Zm-81.6-215,82,214,27.91-10.69-82-214Z"/><rect class="cls-2" x="639.22" y="347.26" width="15.32" height="0.75" transform="translate(-81.57 254.6) rotate(-20.98)"/><rect class="cls-2" x="652.07" y="380.77" width="15.32" height="0.75" transform="translate(-92.72 261.42) rotate(-20.98)"/><rect class="cls-2" x="649.2" y="352.59" width="7.66" height="0.75" transform="translate(-83.08 257.15) rotate(-20.98)"/><rect class="cls-2" x="651.77" y="359.29" width="7.66" height="0.75" transform="translate(-85.31 258.51) rotate(-20.98)"/><rect class="cls-2" x="654.34" y="365.99" width="7.66" height="0.75" transform="translate(-87.53 259.88) rotate(-20.98)"/><rect class="cls-2" x="656.91" y="372.7" width="7.66" height="0.75" transform="translate(-89.76 261.24) rotate(-20.98)"/><rect class="cls-2" x="664.91" y="414.28" width="15.32" height="0.75" transform="translate(-103.87 268.23) rotate(-20.98)"/><rect class="cls-2" x="662.04" y="386.1" width="7.66" height="0.75" transform="translate(-94.22 263.97) rotate(-20.98)"/><rect class="cls-2" x="664.61" y="392.81" width="7.66" height="0.75" transform="translate(-96.45 265.33) rotate(-20.98)"/><rect class="cls-2" x="667.18" y="399.51" width="7.66" height="0.75" transform="translate(-98.68 266.7) rotate(-20.98)"/><rect class="cls-2" x="669.75" y="406.21" width="7.66" height="0.75" transform="translate(-100.91 268.06) rotate(-20.98)"/><rect class="cls-2" x="677.75" y="447.8" width="15.32" height="0.75" transform="translate(-115.01 275.05) rotate(-20.98)"/><rect class="cls-2" x="674.89" y="419.62" width="7.66" height="0.75" transform="translate(-105.37 270.79) rotate(-20.98)"/><rect class="cls-2" x="677.46" y="426.32" width="7.66" height="0.75" transform="translate(-107.6 272.15) rotate(-20.98)"/><rect class="cls-2" x="680.02" y="433.02" width="7.66" height="0.75" transform="translate(-109.83 273.51) rotate(-20.98)"/><rect class="cls-2" x="682.59" y="439.73" width="7.66" height="0.75" transform="translate(-112.06 274.88) rotate(-20.98)"/><rect class="cls-2" x="690.6" y="481.31" width="15.32" height="0.75" transform="translate(-126.16 281.87) rotate(-20.98)"/><rect class="cls-2" x="687.73" y="453.13" width="7.66" height="0.75" transform="translate(-116.51 277.61) rotate(-20.98)"/><rect class="cls-2" x="690.3" y="459.83" width="7.66" height="0.75" transform="translate(-118.74 278.97) rotate(-20.98)"/><rect class="cls-2" x="692.87" y="466.54" width="7.66" height="0.75" transform="translate(-120.97 280.33) rotate(-20.98)"/><rect class="cls-2" x="695.44" y="473.24" width="7.66" height="0.75" transform="translate(-123.2 281.7) rotate(-20.98)"/><rect class="cls-2" x="703.44" y="514.83" width="15.32" height="0.75" transform="translate(-137.3 288.69) rotate(-20.98)"/><rect class="cls-2" x="700.57" y="486.65" width="7.66" height="0.75" transform="translate(-127.66 284.42) rotate(-20.98)"/><rect class="cls-2" x="703.14" y="493.35" width="7.66" height="0.75" transform="translate(-129.89 285.79) rotate(-20.98)"/><rect class="cls-2" x="705.71" y="500.05" width="7.66" height="0.75" transform="translate(-132.12 287.15) rotate(-20.98)"/><rect class="cls-2" x="708.28" y="506.75" width="7.66" height="0.75" transform="translate(-134.35 288.52) rotate(-20.98)"/><rect class="cls-2" x="716.28" y="548.34" width="15.32" height="0.75" transform="translate(-148.45 295.51) rotate(-20.98)"/><rect class="cls-2" x="713.42" y="520.16" width="7.66" height="0.75" transform="translate(-138.81 291.24) rotate(-20.98)"/><rect class="cls-2" x="715.99" y="526.86" width="7.66" height="0.75" transform="translate(-141.03 292.61) rotate(-20.98)"/><rect class="cls-2" x="718.56" y="533.57" width="7.66" height="0.75" transform="translate(-143.26 293.97) rotate(-20.98)"/><rect class="cls-2" x="721.12" y="540.27" width="7.66" height="0.75" transform="translate(-145.49 295.33) rotate(-20.98)"/></g><g id="Ruler-2" data-name="Ruler"><path class="cls-2" d="M1575.29,797.36l-.24.37-146.38,221.4-30.18-20,.24-.37,146.38-221.4Zm-146.86,220.57,145.66-220.32-28.73-19L1399.7,998.93Z"/><rect class="cls-2" x="1410.33" y="988.59" width="0.87" height="17.66" transform="translate(-199.22 1624.36) rotate(-56.54)"/><rect class="cls-2" x="1433.13" y="954.09" width="0.87" height="17.66" transform="translate(-160.2 1627.91) rotate(-56.54)"/><rect class="cls-2" x="1411.21" y="983.67" width="0.87" height="8.83" transform="translate(-191.03 1620.91) rotate(-56.54)"/><rect class="cls-2" x="1415.77" y="976.77" width="0.87" height="8.83" transform="translate(-183.23 1621.62) rotate(-56.54)"/><rect class="cls-2" x="1420.33" y="969.87" width="0.87" height="8.83" transform="translate(-175.43 1622.33) rotate(-56.54)"/><rect class="cls-2" x="1424.89" y="962.97" width="0.87" height="8.83" transform="translate(-167.63 1623.04) rotate(-56.54)"/><rect class="cls-2" x="1455.94" y="919.59" width="0.87" height="17.66" transform="translate(-121.19 1631.46) rotate(-56.54)"/><rect class="cls-2" x="1434.01" y="949.17" width="0.87" height="8.83" transform="translate(-152.02 1624.46) rotate(-56.54)"/><rect class="cls-2" x="1438.57" y="942.27" width="0.87" height="8.83" transform="translate(-144.22 1625.17) rotate(-56.54)"/><rect class="cls-2" x="1443.14" y="935.37" width="0.87" height="8.83" transform="translate(-136.42 1625.88) rotate(-56.54)"/><rect class="cls-2" x="1447.7" y="928.47" width="0.87" height="8.83" transform="translate(-128.62 1626.59) rotate(-56.54)"/><rect class="cls-2" x="1478.75" y="885.09" width="0.87" height="17.66" transform="translate(-82.18 1635.01) rotate(-56.54)"/><rect class="cls-2" x="1456.82" y="914.67" width="0.87" height="8.83" transform="translate(-113.01 1628.01) rotate(-56.54)"/><rect class="cls-2" x="1461.38" y="907.77" width="0.87" height="8.83" transform="translate(-105.21 1628.72) rotate(-56.54)"/><rect class="cls-2" x="1465.94" y="900.87" width="0.87" height="8.83" transform="translate(-97.41 1629.43) rotate(-56.54)"/><rect class="cls-2" x="1470.5" y="893.97" width="0.87" height="8.83" transform="translate(-89.61 1630.14) rotate(-56.54)"/><rect class="cls-2" x="1501.56" y="850.6" width="0.87" height="17.66" transform="translate(-43.17 1638.56) rotate(-56.54)"/><rect class="cls-2" x="1479.63" y="880.17" width="0.87" height="8.83" transform="translate(-74 1631.56) rotate(-56.54)"/><rect class="cls-2" x="1484.19" y="873.28" width="0.87" height="8.83" transform="translate(-66.2 1632.27) rotate(-56.54)"/><rect class="cls-2" x="1488.75" y="866.38" width="0.87" height="8.83" transform="translate(-58.4 1632.98) rotate(-56.54)"/><rect class="cls-2" x="1493.31" y="859.48" width="0.87" height="8.83" transform="translate(-50.6 1633.69) rotate(-56.54)"/><rect class="cls-2" x="1524.36" y="816.1" width="0.87" height="17.66" transform="translate(-4.16 1642.12) rotate(-56.54)"/><rect class="cls-2" x="1502.43" y="845.68" width="0.87" height="8.83" transform="translate(-34.99 1635.11) rotate(-56.54)"/><rect class="cls-2" x="1507" y="838.78" width="0.87" height="8.83" transform="translate(-27.19 1635.82) rotate(-56.54)"/><rect class="cls-2" x="1511.56" y="831.88" width="0.87" height="8.83" transform="translate(-19.39 1636.53) rotate(-56.54)"/><rect class="cls-2" x="1516.12" y="824.98" width="0.87" height="8.83" transform="translate(-11.58 1637.24) rotate(-56.54)"/><rect class="cls-2" x="1547.17" y="781.6" width="0.87" height="17.66" transform="matrix(0.55, -0.83, 0.83, 0.55, 34.85, 1645.67)"/><rect class="cls-2" x="1525.24" y="811.18" width="0.87" height="8.83" transform="translate(4.02 1638.66) rotate(-56.54)"/><rect class="cls-2" x="1529.8" y="804.28" width="0.87" height="8.83" transform="translate(11.82 1639.37) rotate(-56.54)"/><rect class="cls-2" x="1534.37" y="797.38" width="0.87" height="8.83" transform="translate(19.62 1640.08) rotate(-56.54)"/><rect class="cls-2" x="1538.93" y="790.48" width="0.87" height="8.83" transform="translate(27.43 1640.79) rotate(-56.54)"/></g><g id="Bag"><path class="cls-2" d="M992.4,650.46,873.17,603,912,505.48a64.16,64.16,0,1,1,119.23,47.44ZM874.57,602.41,991.8,649.06l38.41-96.54A63.08,63.08,0,0,0,913,505.88Z"/><path class="cls-2" d="M982.07,628.48l-86.51-34.42,18.35-46.12,86.51,34.42Zm-85.11-35,84.5,33.63L999,583l-84.51-33.63Z"/><path class="cls-2" d="M980.83,466.37l-1-.4,2-5.09c2.68-6.72,11.36-9.6,19.36-6.41a17.09,17.09,0,0,1,8.79,7.6,12.08,12.08,0,0,1,.86,10.35l-2,5.05-1-.4,2-5.05a11.05,11.05,0,0,0-.8-9.43,16,16,0,0,0-8.25-7.12c-7.45-3-15.5-.36-17.95,5.81Z"/><path class="cls-2" d="M1012.12,640.44l-14.58-5.81,20.86-52.43.5.2a15.17,15.17,0,0,1,8.48,19.69ZM998.94,634l12.58,5,14.86-37.35a14.1,14.1,0,0,0-7.38-18.08Z"/><path class="cls-2" d="M880.31,588l-14.59-5.8L881,543.84a15.16,15.16,0,0,1,19.69-8.48l.5.2Zm-13.19-6.41,12.58,5,20.07-50.42A14.1,14.1,0,0,0,882,544.24Z"/><rect class="cls-2" x="952.39" y="529.78" width="1.08" height="92.03" transform="translate(65.63 1248.33) rotate(-68.3)"/><rect class="cls-2" x="1012.07" y="498.34" width="1.08" height="49.07" transform="translate(152.41 1270.42) rotate(-68.3)"/><rect class="cls-2" x="945.34" y="472.31" width="1.08" height="48.03" transform="translate(135.02 1191.69) rotate(-68.3)"/><path class="cls-2" d="M983.56,521l-15.76-6.27a3.68,3.68,0,0,1-2.06-4.79l4-10a3.69,3.69,0,0,1,4.79-2.07l15.76,6.27a3.7,3.7,0,0,1,2.07,4.8l-4,10A3.69,3.69,0,0,1,983.56,521Zm-9.44-22.15a2.62,2.62,0,0,0-3.39,1.47l-4,10a2.61,2.61,0,0,0,1.46,3.39L984,520a2.63,2.63,0,0,0,3.4-1.46l4-10a2.61,2.61,0,0,0-1.46-3.4Z"/></g><g id="TestTube"><path class="cls-2" d="M937,193.36a7,7,0,0,1-1-.08l-65.38-10a6.69,6.69,0,0,1-5.58-7.6l1-6.69a6.69,6.69,0,0,1,7.6-5.57l65.38,10a6.69,6.69,0,0,1,5.57,7.6l-1,6.68A6.68,6.68,0,0,1,937,193.36Zm-.86-1.05a5.69,5.69,0,0,0,6.48-4.75l1-6.69a5.68,5.68,0,0,0-4.75-6.48l-65.38-10a5.7,5.7,0,0,0-6.48,4.75l-1,6.69a5.69,5.69,0,0,0,4.76,6.48Z"/><path class="cls-2" d="M888.59,361.07a17.78,17.78,0,0,1-2.62-.2l-17.61-2.71a17.43,17.43,0,0,1-10.23-5.26,17,17,0,0,1-4.39-14.25l23.83-155.32,51.69,7.93-.07.49L905.48,346.23a17.47,17.47,0,0,1-4.89,9.88A17.06,17.06,0,0,1,888.59,361.07Zm-2.48-1.17a16.12,16.12,0,0,0,18.35-13.46l23.69-154.36-49.76-7.64L854.7,338.8a16,16,0,0,0,3.51,12.7,16.67,16.67,0,0,0,10.37,5.71Z"/><rect class="cls-2" x="887.39" y="262.87" width="0.98" height="51.31" transform="translate(468 1122.36) rotate(-81.27)"/><path class="cls-2" d="M900,264a3.52,3.52,0,0,1-.56,0,3.66,3.66,0,1,1,4.16-3.05h0A3.64,3.64,0,0,1,900,264Zm0-6.32a2.67,2.67,0,1,0,2.64,3.08h0a2.68,2.68,0,0,0-2.23-3.05A2.83,2.83,0,0,0,900,257.66Z"/><path class="cls-2" d="M895.05,243.41a5.07,5.07,0,0,1-.86-.07,5.54,5.54,0,0,1-3.67-2.22,5.61,5.61,0,1,1,10.07-2.47h0A5.62,5.62,0,0,1,895.05,243.41Zm0-10.24a4.66,4.66,0,1,0,.71.06A4.34,4.34,0,0,0,895,233.17Z"/><path class="cls-2" d="M905.54,215.15a5.58,5.58,0,0,1-.91-.07,5.91,5.91,0,0,1-4.94-6.73,5.91,5.91,0,1,1,5.85,6.8Zm0-10.83a4.93,4.93,0,0,0-4,7.84,4.92,4.92,0,0,0,8.84-2.16h0a4.94,4.94,0,0,0-4.12-5.62A4.77,4.77,0,0,0,905.51,204.32Z"/><path class="cls-2" d="M906.28,155.24a10.08,10.08,0,0,1-1.44-.11,9.38,9.38,0,1,1,7-1.71A9.28,9.28,0,0,1,906.28,155.24Zm0-17.77a8.4,8.4,0,0,0-8.28,7.12,8.39,8.39,0,1,0,9.57-7A8.1,8.1,0,0,0,906.25,137.47Z"/><path class="cls-2" d="M939.79,150.88A14,14,0,1,1,953.65,139h0A14.05,14.05,0,0,1,939.79,150.88Zm0-27.1a13.06,13.06,0,1,0,12.92,15h0a13.07,13.07,0,0,0-10.93-14.88A12.23,12.23,0,0,0,939.77,123.78Z"/></g><g id="TestTube-2" data-name="TestTube"><path class="cls-2" d="M1268.24,810.05a5.89,5.89,0,0,1-1-.11l-65-12.11a6.67,6.67,0,0,1-5.33-7.77l1.24-6.65a6.69,6.69,0,0,1,7.77-5.33l65,12.11a6.68,6.68,0,0,1,5.33,7.77l-1.24,6.65A6.66,6.66,0,0,1,1268.24,810.05Zm-.83-1.07a5.69,5.69,0,0,0,6.63-4.55l1.24-6.64a5.69,5.69,0,0,0-4.55-6.63l-65-12.11a5.7,5.7,0,0,0-6.63,4.54l-1.24,6.65a5.7,5.7,0,0,0,4.55,6.63Z"/><path class="cls-2" d="M1214.54,976.14a16.55,16.55,0,0,1-2.61-.29l-17.51-3.26a17.46,17.46,0,0,1-10.06-5.59,17,17,0,0,1-3.94-14.37l28.77-154.49,51.41,9.57-.09.49L1231.9,961.84a17.52,17.52,0,0,1-5.2,9.72A17.05,17.05,0,0,1,1214.54,976.14Zm-2.43-1.25A16.1,16.1,0,0,0,1230.87,962l28.59-153.52L1210,799.28l-28.59,153.53a16,16,0,0,0,3.1,12.8,16.7,16.7,0,0,0,10.19,6Z"/><rect class="cls-2" x="1215.65" y="877.96" width="0.98" height="51.31" transform="translate(105.15 1933.77) rotate(-79.45)"/><path class="cls-2" d="M1229,879.47a5.14,5.14,0,0,1-.55-.06,3.65,3.65,0,1,1,3.68-5.66,3.69,3.69,0,0,1,.58,2.74h0A3.68,3.68,0,0,1,1229,879.47Zm.2-6.32a2.67,2.67,0,1,0,2.54,3.16h0a2.67,2.67,0,0,0-2.13-3.12A3,3,0,0,0,1229.2,873.15Z"/><path class="cls-2" d="M1224.74,858.75a5,5,0,0,1-.85-.1,5.61,5.61,0,0,1-4.48-6.54,5.61,5.61,0,1,1,11,2.06h0A5.63,5.63,0,0,1,1224.74,858.75Zm.32-10.24a4.64,4.64,0,0,0-4.69,3.78,4.62,4.62,0,0,0,3.7,5.4,4.63,4.63,0,0,0,1.7-9.1A5.71,5.71,0,0,0,1225.06,848.51Z"/><path class="cls-2" d="M1236.13,830.84a5.63,5.63,0,0,1-.91-.1,5.87,5.87,0,1,1,.91.1Zm.32-10.83a4.93,4.93,0,1,0,4.69,5.83h0a4.92,4.92,0,0,0-3.94-5.74A4.8,4.8,0,0,0,1236.45,820Z"/><path class="cls-2" d="M1238.78,771a8.82,8.82,0,0,1-1.44-.16,9.37,9.37,0,1,1,10.93-7.49,9.37,9.37,0,0,1-9.49,7.65Zm.53-17.76a8.39,8.39,0,0,0-8.5,6.85,8.39,8.39,0,1,0,9.79-6.71A8.08,8.08,0,0,0,1239.31,753.22Z"/><path class="cls-2" d="M1272.41,767.69a14,14,0,1,1,14.23-11.46h0A14.05,14.05,0,0,1,1272.41,767.69Zm.84-27.09a13.06,13.06,0,1,0,12.43,15.45h0a13.08,13.08,0,0,0-10.44-15.23A15.14,15.14,0,0,0,1273.25,740.6Z"/></g><g id="Cricket"><g id="Ball"><path class="cls-2" d="M1799.5,739l-.51.22a23.69,23.69,0,1,1,.51-.22Zm-18.41-42.12a22.68,22.68,0,1,0,30.07,12.18l.28-.11-.28.11a22.71,22.71,0,0,0-29.59-12.39Z"/><rect class="cls-2" x="1777.19" y="726.07" width="3.62" height="0.61" transform="translate(138.31 1726.68) rotate(-53.58)"/><rect class="cls-2" x="1785.39" y="714.96" width="3.62" height="0.61" transform="translate(150.83 1729.16) rotate(-53.59)"/><rect class="cls-2" x="1793.59" y="703.85" width="3.62" height="0.61" transform="translate(163.11 1731.24) rotate(-53.59)"/><rect class="cls-2" x="1797.72" y="698.36" width="3.44" height="0.61" transform="translate(168.91 1731.87) rotate(-53.58)"/><rect class="cls-2" x="1789.49" y="709.4" width="3.62" height="0.61" transform="translate(156.97 1730.2) rotate(-53.59)"/><rect class="cls-2" x="1781.29" y="720.52" width="3.62" height="0.61" transform="translate(144.45 1727.72) rotate(-53.58)"/><rect class="cls-2" x="1772.98" y="731.69" width="3.76" height="0.61" transform="matrix(0.59, -0.8, 0.8, 0.59, 132.11, 1725.63)"/><rect class="cls-2" x="1782.06" y="729.72" width="3.62" height="0.61" transform="translate(137.6 1732.48) rotate(-53.59)"/><rect class="cls-2" x="1790.25" y="718.6" width="3.62" height="0.61" transform="translate(149.63 1734.15) rotate(-53.58)"/><rect class="cls-2" x="1798.45" y="707.49" width="3.62" height="0.61" transform="translate(162.15 1736.63) rotate(-53.59)"/><rect class="cls-2" x="1802.5" y="701.83" width="3.87" height="0.61" transform="matrix(0.59, -0.8, 0.8, 0.59, 168.4, 1737.69)"/><rect class="cls-2" x="1794.35" y="713.05" width="3.62" height="0.61" transform="translate(156.01 1735.59) rotate(-53.59)"/><rect class="cls-2" x="1786.15" y="724.16" width="3.62" height="0.61" transform="translate(143.74 1733.52) rotate(-53.59)"/><rect class="cls-2" x="1777.59" y="735.46" width="4.08" height="0.61" transform="translate(131.25 1731.4) rotate(-53.59)"/></g><g id="Bat"><path class="cls-2" d="M1696.7,691.85l-.57.25L1664.66,620a14.67,14.67,0,0,0-6.6-7.26,9.59,9.59,0,0,0-8.38-.53c-5.37,2.34-7.37,9.65-4.48,16.29l31.48,72.08-.57.25-31.47-72.09c-3-7-.88-14.61,4.79-17.09a10.23,10.23,0,0,1,8.91.54,15.32,15.32,0,0,1,6.88,7.57Z"/><path class="cls-2" d="M1807.92,974.66a32.85,32.85,0,0,1-43.2-16.94L1657.53,712.21a3.3,3.3,0,0,1,1.7-4.33l54.1-23.62a3.29,3.29,0,0,1,4.34,1.7l107.18,245.51A32.84,32.84,0,0,1,1807.92,974.66ZM1659.48,708.44a2.66,2.66,0,0,0-1.38,3.52l107.18,245.52a32.2,32.2,0,1,0,59-25.77L1717.1,686.2a2.68,2.68,0,0,0-3.52-1.38Z"/><rect class="cls-2" x="1737.17" y="685.68" width="0.61" height="255.29" transform="translate(-180.28 763.14) rotate(-23.59)"/><polygon class="cls-2" points="1823.46 930.07 1788.68 930.61 1764.65 955.75 1764.21 955.33 1788.42 930 1788.55 930 1823.45 929.46 1823.46 930.07"/></g></g><g id="mic"><path class="cls-2" d="M1310.22,470.24a56.13,56.13,0,0,1-33.68-11.06c-26.1-19.38-30.56-57.73-10-85.51s58.63-34.6,84.72-15.22a56.84,56.84,0,0,1,22.53,39.61A64.44,64.44,0,0,1,1361.26,444l-.37-.28.37.28A64.38,64.38,0,0,1,1321,469.27,60.52,60.52,0,0,1,1310.22,470.24Zm7.37-121.9c-18.75,0-37.75,9-50.25,25.88-20.32,27.37-15.94,65.14,9.75,84.21a55.89,55.89,0,0,0,43.72,9.93,64.68,64.68,0,0,0,52.11-70.2,55.93,55.93,0,0,0-22.15-39A55.33,55.33,0,0,0,1317.59,348.34Z"/><polygon class="cls-2" points="1214.22 581.49 1177.49 554.23 1177.7 553.88 1254.35 421.29 1255.14 421.75 1178.7 553.98 1214.11 580.26 1318.56 468.82 1318.89 469.13 1319.17 468.77 1319.58 469.08 1319.23 469.45 1214.22 581.49"/><path class="cls-2" d="M1167.15,609.23a10.92,10.92,0,0,1-4.31-.65l.42-.82c1.61.83,10.7,1.27,15.57-3.26,3.72-3.45,4.07-8.82,1-16-1.46-3.43-3.16-11.16.84-15.83,3.45-4,10.16-4.83,19.94-2.38l-.22.9c-9.42-2.37-15.82-1.67-19,2.08-3.7,4.32-2.07,11.62-.69,14.87,3.19,7.54,2.77,13.27-1.26,17C1176.16,608.24,1171,609.23,1167.15,609.23Z"/><path class="cls-2" d="M1256.92,492.78a7.24,7.24,0,0,1-7.07-5.94,6.54,6.54,0,0,1,1.17-5,6.86,6.86,0,0,1,9.6-1.2,7.13,7.13,0,0,1,2.81,4.51,6.5,6.5,0,0,1-5.65,7.61A8.27,8.27,0,0,1,1256.92,492.78Zm-.57-12.67a5.67,5.67,0,0,0-4.59,2.25,5.6,5.6,0,0,0-1,4.32,6.29,6.29,0,0,0,6.91,5.13,5.57,5.57,0,0,0,3.84-2.21h0a5.6,5.6,0,0,0,1-4.32,6.21,6.21,0,0,0-2.45-3.93A6.27,6.27,0,0,0,1256.35,480.11Z"/><path class="cls-2" d="M1240.72,518.42a11,11,0,0,1-6.54-2.18,10.23,10.23,0,1,1,14.68-1.83h0A10.05,10.05,0,0,1,1240.72,518.42Zm-.9-19.85a9.13,9.13,0,0,0-7.4,3.64,9.79,9.79,0,0,0,15.7,11.65h0a9.56,9.56,0,0,0-2.31-13.29A10,10,0,0,0,1239.82,498.57Z"/><rect class="cls-2" x="1301.99" y="368.84" width="0.92" height="111.48" transform="translate(185.2 1217.3) rotate(-53.41)"/><rect class="cls-2" x="1295.8" y="380.86" width="0.92" height="102.75" transform="translate(176.56 1215.43) rotate(-53.41)"/></g><g id="Note"><path class="cls-2" d="M1145.81,241c-15.82,6.28-32.46,1.9-37.09-9.77s4.48-26.26,20.31-32.54,32.46-1.9,37.09,9.77S1161.64,234.68,1145.81,241Zm-16.38-41.3c-15.27,6.06-24.11,20-19.7,31.13s20.42,15.22,35.68,9.16,24.11-20,19.7-31.13S1144.69,193.6,1129.43,199.66Z"/><rect class="cls-2" x="1137.39" y="63.78" width="1.09" height="150.13" transform="translate(29.01 429.46) rotate(-21.64)"/><path class="cls-2" d="M1171,101.74c-5.66,1.92-12.5.57-18.3-3.62-5.25-3.8-9-9.18-12.26-14.44l-.77-1.25c-2.43-4-5-8.05-8.6-10.87a19.24,19.24,0,0,0-20.41-1.6l-.52-.95a20.36,20.36,0,0,1,21.59,1.69c3.82,2.94,6.39,7.12,8.87,11.16l.77,1.24c3.2,5.17,6.87,10.45,12,14.14,5.51,4,12,5.28,17.31,3.47Z"/></g><g id="Note-2" data-name="Note"><path class="cls-2" d="M553.31,1027.11c-15.83,6.28-32.47,1.9-37.1-9.77s4.49-26.27,20.31-32.55,32.47-1.89,37.1,9.77S569.14,1020.83,553.31,1027.11Zm-16.39-41.3c-15.26,6.05-24.1,20-19.69,31.13s20.41,15.21,35.68,9.16,24.1-20,19.69-31.14S552.19,979.75,536.92,985.81Z"/><rect class="cls-2" x="544.88" y="849.92" width="1.09" height="150.13" transform="translate(-302.69 266.36) rotate(-21.64)"/><path class="cls-2" d="M578.5,887.89c-5.65,1.92-12.49.56-18.29-3.62-5.26-3.8-9-9.19-12.26-14.45l-.77-1.24c-2.43-4-4.95-8.05-8.61-10.87a19.22,19.22,0,0,0-20.4-1.6l-.52-1a20.34,20.34,0,0,1,21.59,1.7c3.81,2.93,6.38,7.11,8.87,11.16l.76,1.24c3.21,5.16,6.87,10.45,12,14.13,5.51,4,12,5.28,17.3,3.48Z"/></g><path class="cls-2" d="M96.52,925.38,88,926l-.09.4,7.42,4.22L134.92,961l-.9,3.94L83.8,926.85l.76-3.35L146.3,911l-.88,3.88Z"/><path class="cls-2" d="M141.62,985l-4-.89,64.73-96.5,3.94.9Z"/><path class="cls-2" d="M213.32,930.21l.88-3.88,50.17,38-.76,3.34-61.69,12.63.9-3.95,48.82-10.49,8.44-.61.09-.4-7.33-4.27Z"/><path class="cls-2" d="M1352.7,207.84q-8.88-10.65-8.81-20.93t6.88-20.66l9.84-15q5.3-8.06,4.32-15.09t-9.18-12.42l2.65-4q8.2,5.4,15,3.57t12.1-9.89l9.91-15.08q6.87-10.44,16.35-14.66t22.77-.29l-.85,3.38q-11-3.21-19.8.58t-15,13.27L1389,115.71q-4.83,7.32-11.45,10.14t-14.48-.16q5.81,6.09,5.81,13.35a26.27,26.27,0,0,1-4.78,14.53l-9.84,15q-6.18,9.39-5.92,18.84t7.52,18.5Z"/><path class="cls-2" d="M1391.58,229.39q11.14,3,19.91-.47t15-12.91l9.83-14.95a26.44,26.44,0,0,1,11.42-10.17q6.63-2.89,14.59.07-5.91-6.08-5.92-13.26t4.81-14.5l9.92-15.08q6.23-9.47,6.23-19t-7.24-18.37l2.7-2.15q8.81,10.6,8.72,21t-7,20.83l-9.92,15.08q-5.3,8.07-4.28,15t9.22,12.36l-2.65,4q-8.21-5.4-15.07-3.48t-12.12,9.92l-9.83,15q-6.87,10.44-16.27,14.54T1391,233Z"/><g id="Basketball"><path class="cls-2" d="M374.1,836.55a79.4,79.4,0,1,1,20.48-2.66A79.93,79.93,0,0,1,374.1,836.55Zm0-158.82a79,79,0,1,0,19.53,2.43A79.25,79.25,0,0,0,374.1,677.73Z"/><rect class="cls-2" x="294.68" y="756.7" width="158.83" height="0.45" transform="translate(-425.65 486.22) rotate(-45)"/><path class="cls-2" d="M297,776.79l-.06-.23a79.65,79.65,0,0,1,96.83-96.83l.23.06-.08.23c-6.64,19.61-20.24,40.35-38.29,58.4s-38.8,31.65-58.41,38.29Zm77.13-99.06a79.19,79.19,0,0,0-76.82,98.48c19.48-6.64,40.07-20.17,58-38.11s31.46-38.52,38.11-58A79.6,79.6,0,0,0,374.1,677.73Z"/><path class="cls-2" d="M374.1,836.55a79.93,79.93,0,0,1-19.64-2.44l-.23-.06.07-.23c6.65-19.61,20.25-40.35,38.3-58.4s38.79-31.65,58.4-38.29l.23-.08.06.23a79.59,79.59,0,0,1-77.19,99.27Zm-19.3-2.81a79.19,79.19,0,0,0,96.11-96.11c-19.48,6.65-40.07,20.17-58,38.11S361.45,814.26,354.8,833.74Z"/><rect class="cls-2" x="373.87" y="677.51" width="0.45" height="158.83" transform="translate(-425.65 486.22) rotate(-45)"/></g><g id="Pencil"><path class="cls-2" d="M129.77,416.09l4.63,13.59-42.53,14.5L87.24,430.6l42.53-14.51m.42-.85L86.38,430.18,91.45,445l43.8-15-5.06-14.85Z"/><path class="cls-2" d="M134.62,430.31l72.66,213-.06.33L165,658.07l-.26-.23-72.66-213,42.53-14.51m.42-.85L91.24,444.4l72.93,213.83.69.6,42.94-14.65.18-.89L135,429.46Z"/><path class="cls-2" d="M207.09,644.3l-8.61,42.83-33-28.64,41.59-14.19m.89-1-43.81,14.94.69.6,34,29.56,8.89-44.21.18-.89Z"/><rect class="cls-2" x="148.14" y="431.06" width="2" height="226.71" transform="translate(-167.77 77.3) rotate(-18.83)"/></g><g id="Pencil-2" data-name="Pencil"><path class="cls-2" d="M1736.32,63.24l1.28,14.3-44.76,4-1.28-14.3,44.76-4m.6-.72-46.09,4.14,1.4,15.63,46.1-4.14-1.41-15.63Z"/><path class="cls-2" d="M1737.66,78.21l20.13,224.18-.14.3-44.42,4-.2-.27L1692.9,82.23l44.76-4m.61-.73-46.1,4.14,20.21,225,.53.73,45.18-4.05.39-.82-20.21-225Z"/><path class="cls-2" d="M1757.37,303.28l-18.5,39.57-25.26-35.64,43.76-3.93m1.11-.77-46.1,4.14.53.73,26.08,36.8,19.1-40.85.39-.82Z"/><rect class="cls-2" x="1723.74" y="79.15" width="2" height="226.71" transform="translate(-10.31 155.05) rotate(-5.13)"/></g><rect class="cls-2" x="604.02" y="609.51" width="2" height="69.59"/><rect class="cls-2" x="570.22" y="643.3" width="69.59" height="2"/><rect class="cls-2" x="1522.9" y="371.8" width="2" height="69.59"/><rect class="cls-2" x="1489.11" y="405.59" width="69.59" height="2"/><rect class="cls-2" x="696.44" y="755.92" width="69.59" height="2" transform="translate(-321.05 738.76) rotate(-45)"/><rect class="cls-2" x="730.24" y="722.13" width="2" height="69.59" transform="translate(-321.05 738.76) rotate(-45)"/><rect class="cls-2" x="1404.86" y="592.3" width="69.59" height="2" transform="translate(2.14 1191.76) rotate(-45)"/><rect class="cls-2" x="1438.66" y="558.51" width="2" height="69.59" transform="translate(2.14 1191.76) rotate(-45)"/><path class="cls-2" d="M1817.85,552.38l-196-35.33a10.75,10.75,0,0,1-8.67-12.47l6-33.3a10.74,10.74,0,0,1,12.46-8.66l196,35.33a10.75,10.75,0,0,1,8.67,12.47l-6,33.3A10.74,10.74,0,0,1,1817.85,552.38ZM1631.39,463.9a9.45,9.45,0,0,0-11,7.61l-6,33.3a9.45,9.45,0,0,0,7.62,11l196,35.33a9.45,9.45,0,0,0,11-7.61l6-33.3a9.45,9.45,0,0,0-7.62-11Z"/><path class="cls-2" d="M1675.58,488a6.54,6.54,0,0,1,4.27,2.3,5.79,5.79,0,0,1-1.41,7.88,6.53,6.53,0,0,1-4.81.65l-4.57-.82-1.34,7.44,2.12.38-.13.7-5-.89.13-.7,2.12.38,3.17-17.56-2.12-.39.12-.7,2.13.38Zm-6.4,9.3,4.58.83a5.67,5.67,0,0,0,4.3-.61,5,5,0,0,0,1.22-6.74,5.61,5.61,0,0,0-3.82-2.07l-4.58-.83Z"/><path class="cls-2" d="M1686.59,495l-.32,2.47-.08.48a5.14,5.14,0,0,1,2.17-2,4.82,4.82,0,0,1,3-.33,3,3,0,0,1,.55.15l.42.17-.19.61-.9-.24a4.14,4.14,0,0,0-3.29.67,6,6,0,0,0-2.11,2.93l-1.54,8.53,2.13.39-.13.7-5-.89.13-.7,2.12.38,2.29-12.69-2.13-.38.13-.71,2.12.39Z"/><path class="cls-2" d="M1697.73,511.84a5.51,5.51,0,0,1-3.81-2.69A7.05,7.05,0,0,1,1693,504l.15-.83a7.55,7.55,0,0,1,2.6-4.72,5.36,5.36,0,0,1,4.54-1.23,5.2,5.2,0,0,1,3.6,2.26,5.85,5.85,0,0,1,.75,4.47l-.19,1.08-10.57-1.91,0,.17-.15.84a6.52,6.52,0,0,0,.72,4.59,4.79,4.79,0,0,0,3.39,2.43,7.39,7.39,0,0,0,2.72.05,4.8,4.8,0,0,0,2-1l.28.62a5.38,5.38,0,0,1-2.28,1A7.42,7.42,0,0,1,1697.73,511.84Zm2.47-13.93a4.62,4.62,0,0,0-3.77.9,6.29,6.29,0,0,0-2.26,3.54l0,.09,9.72,1.75.08-.43a5.15,5.15,0,0,0-.66-3.81A4.44,4.44,0,0,0,1700.2,497.91Z"/><path class="cls-2" d="M1717.65,505l-.7-.12.41-2.28a4.29,4.29,0,0,0-1.52-1.47,6.8,6.8,0,0,0-2.35-.85,4.65,4.65,0,0,0-3.15.32,2.53,2.53,0,0,0-1.37,1.79,2.46,2.46,0,0,0,.52,2,8.08,8.08,0,0,0,3.16,2,9.41,9.41,0,0,1,3.31,2.13,3.18,3.18,0,0,1,.74,2.86,3.27,3.27,0,0,1-1.84,2.44,5.89,5.89,0,0,1-3.78.38,7.81,7.81,0,0,1-2.74-1,6,6,0,0,1-1.92-1.75l.45-2.52.7.13-.38,2.12a4.47,4.47,0,0,0,1.69,1.53,8.13,8.13,0,0,0,2.33.8,4.94,4.94,0,0,0,3.26-.36,2.67,2.67,0,0,0,1.53-1.9,2.79,2.79,0,0,0-.59-2.21,7.1,7.1,0,0,0-3.08-2A9.42,9.42,0,0,1,1709,505a2.94,2.94,0,0,1-.69-2.68A3.19,3.19,0,0,1,1710,500a5.41,5.41,0,0,1,3.62-.4,7.38,7.38,0,0,1,2.71,1,5.65,5.65,0,0,1,1.81,1.76Z"/><path class="cls-2" d="M1719.22,514.71l2.12.38,2.29-12.69-2.12-.38.12-.71,2.83.51-2.41,13.4,2.12.38-.13.7-5-.89Zm6-17.32-.71-.12.33-1.8.7.13Z"/><path class="cls-2" d="M1737.72,516.44a5.11,5.11,0,0,1-2.24,1.5,5.94,5.94,0,0,1-3,.16,4.6,4.6,0,0,1-3.54-2.6,8.63,8.63,0,0,1-.48-5.41l0-.27a9.19,9.19,0,0,1,2.37-5.07,4.6,4.6,0,0,1,4.26-1.27,5.2,5.2,0,0,1,2.73,1.28,5.6,5.6,0,0,1,1.54,2.43l1.46-8.11-2.12-.39.13-.7,2.12.38.71.13-3.54,19.62,2.12.38-.12.71-2.81-.51Zm-8.55-6.22a8.39,8.39,0,0,0,.32,4.85,3.89,3.89,0,0,0,3.09,2.33,5.36,5.36,0,0,0,3.2-.29,4.73,4.73,0,0,0,2.17-1.91l1.19-6.6a5.93,5.93,0,0,0-1.19-2.83,4.58,4.58,0,0,0-3-1.59,3.83,3.83,0,0,0-3.73,1.21,9,9,0,0,0-2,4.56Z"/><path class="cls-2" d="M1748.89,521.06a5.48,5.48,0,0,1-3.81-2.69,7.05,7.05,0,0,1-.88-5.16l.15-.83a7.55,7.55,0,0,1,2.6-4.72,5.37,5.37,0,0,1,4.54-1.23,5.24,5.24,0,0,1,3.61,2.26,5.9,5.9,0,0,1,.74,4.47l-.19,1.08-10.57-1.91,0,.17-.15.84a6.63,6.63,0,0,0,.72,4.59,4.79,4.79,0,0,0,3.4,2.43,7.12,7.12,0,0,0,2.71,0,4.74,4.74,0,0,0,2-1l.28.62a5.33,5.33,0,0,1-2.28,1A7.42,7.42,0,0,1,1748.89,521.06Zm2.47-13.93a4.62,4.62,0,0,0-3.77.9,6.29,6.29,0,0,0-2.26,3.54l0,.09,9.72,1.75.08-.43a5.15,5.15,0,0,0-.66-3.81A4.44,4.44,0,0,0,1751.36,507.13Z"/><path class="cls-2" d="M1757.24,521.56l2.12.38,2.29-12.69-2.13-.38.13-.7,2.72.49-.43,2.92a5.25,5.25,0,0,1,2.28-2,5.39,5.39,0,0,1,3.18-.29,4.21,4.21,0,0,1,3.19,2.08,7.53,7.53,0,0,1,.33,4.81l-1.37,7.6,2.12.38-.13.7-5-.89.13-.7,2.12.38,1.38-7.62c.35-1.95.25-3.39-.31-4.32a3.66,3.66,0,0,0-2.63-1.71,4.33,4.33,0,0,0-3.68.74,6.7,6.7,0,0,0-2.08,3.23l-1.46,8.1,2.13.38-.13.71-5-.9Z"/><path class="cls-2" d="M1780.54,508l-.68,3.81,3.46.62-.13.72-3.46-.63-1.76,9.75a4.07,4.07,0,0,0,.14,2.57,1.91,1.91,0,0,0,1.42,1c.28,0,.53.09.75.11l.91.07,0,.66a5.75,5.75,0,0,1-.83,0c-.28,0-.59-.07-.94-.13a2.65,2.65,0,0,1-2-1.31,5,5,0,0,1-.2-3.12l1.76-9.74-2.61-.47.13-.72,2.61.47.69-3.81Z"/></svg>