<svg id="Layer_1" data-name="Layer 1" xmlns="http://www.w3.org/2000/svg" xmlns:xlink="http://www.w3.org/1999/xlink" viewBox="0 0 1920 1371.29"><defs><style>.cls-1{fill:none;}.cls-2{clip-path:url(#clip-path);}.cls-3{font-size:58.05px;}.cls-3,.cls-5{fill:#fafafa;}.cls-16,.cls-18,.cls-3,.cls-5{font-family:AvenirNext-UltraLight, Avenir Next;}.cls-4{clip-path:url(#clip-path-2);}.cls-5{font-size:63.24px;}.cls-6{letter-spacing:-0.01em;}.cls-7{letter-spacing:-0.01em;}.cls-8{letter-spacing:-0.02em;}.cls-9{letter-spacing:0em;}.cls-10{letter-spacing:-0.02em;}.cls-11{letter-spacing:-0.01em;}.cls-12{letter-spacing:0em;}.cls-13{letter-spacing:0em;}.cls-14{letter-spacing:-0.02em;}.cls-15{letter-spacing:0em;}.cls-16{font-size:132.28px;fill:#4dd0e1;}.cls-17{letter-spacing:-0.01em;}.cls-18{font-size:92.36px;fill:#c0db52;}.cls-19{letter-spacing:-0.01em;}.cls-20{letter-spacing:-0.02em;}.cls-21{letter-spacing:0em;}.cls-22{letter-spacing:0em;}</style><clipPath id="clip-path"><path class="cls-1" d="M-924.4-480.23l-63.7,334.88C-1009.87-33.55-974.86-41-836.47,25.77c33.54,16.14,115.78,40.09,119.63,97.58,7.59,120.35-90.25,380.58-143.34,472-25.43,43.57-151.64,236.23-206.17,255.15-83.16,29.71-183.27-141.6-324.7-31.32l-246.32,218c-237.53,206.31,308.14,403,505.07,310.81C-648,1117.41-108.31-28.84-534.39-439.2-630.51-529.93-892.64-611.17-924.4-480.23Z"/></clipPath><clipPath id="clip-path-2"><path class="cls-1" d="M1764.23,0H153.77C68.46,0-1,69.4-1,154.79v1055.4C-1,1295.56,68.46,1365,153.77,1365H1764.23c85.3,0,154.77-69.41,154.77-154.78V154.79C1919,69.4,1849.53,0,1764.23,0Zm96.6,131.75L1083.4,809.31c-33.25,29.05-77.44,45.07-124.4,45.07s-91.1-16-124.4-45L48.3,124.1l4.47-10.84A110.07,110.07,0,0,1,101.32,59l10-5.5L896.74,738.06c15.93,13.85,38.63,21.8,62.27,21.8h0c23.64,0,46.32-8,62.23-21.8L1806.59,53.48l10,5.49a110,110,0,0,1,48.62,54.22l4.47,10.84Z"/></clipPath></defs><title>email</title><g class="cls-2"><text class="cls-3" transform="translate(-306.11 27.39)">+91 9811014220</text><text class="cls-3" transform="translate(-53.75 112.7)">+91 9811014220</text><text class="cls-3" transform="translate(-223.88 283.32)">+91 9811014220</text><text class="cls-3" transform="translate(-22.26 368.63)">+91 9811014220</text><text class="cls-3" transform="translate(-460.56 539.25)">+1 (647) 936 8004</text><text class="cls-3" transform="translate(40.15 539.25)">+91 9811014220</text><text class="cls-3" transform="translate(-275.67 709.87)">+91 9811014220</text><text class="cls-3" transform="translate(-350.21 795.18)">+91 9811014220</text><text class="cls-3" transform="translate(-394.47 880.49)">+1 (647) 936 8004</text><text class="cls-3" transform="translate(106.24 880.49)">+91 9811014220</text><text class="cls-3" transform="translate(-391.44 965.81)">+91 9811014220</text><text class="cls-3" transform="translate(-256.94 1051.11)">+91 9811014220</text><text class="cls-3" transform="translate(-128.44 1246.31)">+91 9811014220</text><text class="cls-3" transform="translate(-223.88 1331.62)">+91 9811014220</text></g><g class="cls-4"><text class="cls-5" transform="translate(-56.27 2.13)">geet.s.chop<tspan class="cls-6" x="329.9" y="0">r</tspan><tspan x="349.19" y="0">a@gmail.com geet.chop</tspan><tspan class="cls-7" x="1033.21" y="0">r</tspan><tspan x="1052.5" y="0">a@mail.uto</tspan><tspan class="cls-8" x="1361.47" y="0">r</tspan><tspan x="1380.38" y="0">ont</tspan><tspan class="cls-7" x="1474.03" y="0">o</tspan><tspan class="cls-9" x="1511.53" y="0">.ca geet.s.chop</tspan><tspan class="cls-7" x="1935.14" y="0">r</tspan><tspan x="1954.43" y="0">a@gmail.com geet.chop</tspan><tspan class="cls-7" x="2638.45" y="0">r</tspan><tspan x="2657.74" y="0">a@mail.uto</tspan><tspan class="cls-10" x="2966.71" y="0">r</tspan><tspan x="2985.62" y="0">ont</tspan><tspan class="cls-7" x="3079.27" y="0">o</tspan><tspan class="cls-9" x="3116.77" y="0">.ca</tspan></text><text class="cls-5" transform="translate(-654.62 89.64)">geet.s.chop<tspan class="cls-11" x="329.9" y="0">r</tspan><tspan x="349.19" y="0">a@gmail.com geet.chop</tspan><tspan class="cls-6" x="1033.21" y="0">r</tspan><tspan x="1052.5" y="0">a@mail.uto</tspan><tspan class="cls-10" x="1361.47" y="0">r</tspan><tspan x="1380.37" y="0">ont</tspan><tspan class="cls-7" x="1474.03" y="0">o</tspan><tspan x="1511.53" y="0">.ca geet.s.chop</tspan><tspan class="cls-6" x="1935.14" y="0">r</tspan><tspan class="cls-12" x="1954.43" y="0">a@gmail.com geet.chop</tspan><tspan class="cls-7" x="2638.45" y="0">r</tspan><tspan x="2657.74" y="0">a@mail.uto</tspan><tspan class="cls-8" x="2966.71" y="0">r</tspan><tspan x="2985.62" y="0">ont</tspan><tspan class="cls-6" x="3079.27" y="0">o</tspan><tspan class="cls-9" x="3116.77" y="0">.ca</tspan></text><text class="cls-5" transform="translate(-2885.22 185.86)">geet.s.chop<tspan class="cls-11" x="329.9" y="0">r</tspan><tspan x="349.19" y="0">a@gmail.com geet.chop</tspan><tspan class="cls-11" x="1033.21" y="0">r</tspan><tspan x="1052.5" y="0">a@mail.uto</tspan><tspan class="cls-10" x="1361.47" y="0">r</tspan><tspan x="1380.37" y="0">ont</tspan><tspan class="cls-11" x="1474.03" y="0">o</tspan><tspan class="cls-13" x="1511.53" y="0">.ca geet.s.chop</tspan><tspan class="cls-11" x="1935.14" y="0">r</tspan><tspan x="1954.43" y="0">a@gmail.com geet.chop</tspan><tspan class="cls-11" x="2638.45" y="0">r</tspan><tspan x="2657.74" y="0">a@mail.uto</tspan><tspan class="cls-10" x="2966.71" y="0">r</tspan><tspan class="cls-9" x="2985.62" y="0">ont</tspan><tspan class="cls-6" x="3079.27" y="0">o</tspan><tspan x="3116.77" y="0">.ca</tspan></text><text class="cls-5" transform="translate(-56.27 277.74)">geet.s.chop<tspan class="cls-6" x="329.9" y="0">r</tspan><tspan x="349.19" y="0">a@gmail.com geet.chop</tspan><tspan class="cls-7" x="1033.21" y="0">r</tspan><tspan x="1052.5" y="0">a@mail.uto</tspan><tspan class="cls-8" x="1361.47" y="0">r</tspan><tspan x="1380.38" y="0">ont</tspan><tspan class="cls-7" x="1474.03" y="0">o</tspan><tspan class="cls-9" x="1511.53" y="0">.ca geet.s.chop</tspan><tspan class="cls-7" x="1935.14" y="0">r</tspan><tspan x="1954.43" y="0">a@gmail.com geet.chop</tspan><tspan class="cls-7" x="2638.45" y="0">r</tspan><tspan x="2657.74" y="0">a@mail.uto</tspan><tspan class="cls-10" x="2966.71" y="0">r</tspan><tspan x="2985.62" y="0">ont</tspan><tspan class="cls-7" x="3079.27" y="0">o</tspan><tspan class="cls-9" x="3116.77" y="0">.ca</tspan></text><text class="cls-5" transform="translate(1585.49 182.05)">geet.s.chop<tspan class="cls-6" x="329.9" y="0">r</tspan><tspan x="349.19" y="0">a@gmail.com geet.chop</tspan><tspan class="cls-7" x="1033.21" y="0">r</tspan><tspan x="1052.5" y="0">a@mail.uto</tspan><tspan class="cls-8" x="1361.47" y="0">r</tspan><tspan x="1380.38" y="0">ont</tspan><tspan class="cls-7" x="1474.03" y="0">o</tspan><tspan class="cls-9" x="1511.53" y="0">.ca geet.s.chop</tspan><tspan class="cls-7" x="1935.14" y="0">r</tspan><tspan x="1954.43" y="0">a@gmail.com geet.chop</tspan><tspan class="cls-7" x="2638.45" y="0">r</tspan><tspan x="2657.74" y="0">a@mail.uto</tspan><tspan class="cls-10" x="2966.71" y="0">r</tspan><tspan x="2985.62" y="0">ont</tspan><tspan class="cls-7" x="3079.27" y="0">o</tspan><tspan class="cls-9" x="3116.77" y="0">.ca</tspan></text><text class="cls-5" transform="translate(-500.54 365.25)">geet.s.chop<tspan class="cls-11" x="329.9" y="0">r</tspan><tspan x="349.19" y="0">a@gmail.com geet.chop</tspan><tspan class="cls-6" x="1033.21" y="0">r</tspan><tspan x="1052.5" y="0">a@mail.uto</tspan><tspan class="cls-10" x="1361.47" y="0">r</tspan><tspan x="1380.37" y="0">ont</tspan><tspan class="cls-7" x="1474.03" y="0">o</tspan><tspan x="1511.53" y="0">.ca geet.s.chop</tspan><tspan class="cls-6" x="1935.14" y="0">r</tspan><tspan class="cls-12" x="1954.43" y="0">a@gmail.com geet.chop</tspan><tspan class="cls-7" x="2638.45" y="0">r</tspan><tspan x="2657.74" y="0">a@mail.uto</tspan><tspan class="cls-8" x="2966.71" y="0">r</tspan><tspan x="2985.62" y="0">ont</tspan><tspan class="cls-6" x="3079.27" y="0">o</tspan><tspan class="cls-9" x="3116.77" y="0">.ca</tspan></text><text class="cls-5" transform="translate(-746.72 452.76)">geet.s.chop<tspan class="cls-11" x="329.9" y="0">r</tspan><tspan x="349.19" y="0">a@gmail.com geet.chop</tspan><tspan class="cls-7" x="1033.21" y="0">r</tspan><tspan x="1052.5" y="0">a@mail.uto</tspan><tspan class="cls-8" x="1361.47" y="0">r</tspan><tspan x="1380.38" y="0">ont</tspan><tspan class="cls-7" x="1474.03" y="0">o</tspan><tspan class="cls-9" x="1511.53" y="0">.ca geet.s.chop</tspan><tspan class="cls-7" x="1935.14" y="0">r</tspan><tspan x="1954.43" y="0">a@gmail.com geet.chop</tspan><tspan class="cls-7" x="2638.45" y="0">r</tspan><tspan x="2657.74" y="0">a@mail.uto</tspan><tspan class="cls-10" x="2966.71" y="0">r</tspan><tspan x="2985.62" y="0">ont</tspan><tspan class="cls-7" x="3079.27" y="0">o</tspan><tspan class="cls-9" x="3116.77" y="0">.ca</tspan></text><text class="cls-5" transform="translate(-134.69 540.28)">geet.s.chop<tspan class="cls-6" x="329.9" y="0">r</tspan><tspan x="349.19" y="0">a@gmail.com geet.chop</tspan><tspan class="cls-6" x="1033.21" y="0">r</tspan><tspan x="1052.5" y="0">a@mail.uto</tspan><tspan class="cls-10" x="1361.47" y="0">r</tspan><tspan class="cls-9" x="1380.37" y="0">ont</tspan><tspan class="cls-6" x="1474.03" y="0">o</tspan><tspan x="1511.53" y="0">.ca geet.s.chop</tspan><tspan class="cls-6" x="1935.14" y="0">r</tspan><tspan x="1954.43" y="0">a@gmail.com geet.chop</tspan><tspan class="cls-6" x="2638.45" y="0">r</tspan><tspan class="cls-12" x="2657.74" y="0">a@mail.uto</tspan><tspan class="cls-10" x="2966.71" y="0">r</tspan><tspan x="2985.62" y="0">ont</tspan><tspan class="cls-6" x="3079.27" y="0">o</tspan><tspan x="3116.77" y="0">.ca</tspan></text><text class="cls-5" transform="translate(-746.72 627.79)">geet.s.chop<tspan class="cls-11" x="329.9" y="0">r</tspan><tspan x="349.19" y="0">a@gmail.com geet.chop</tspan><tspan class="cls-7" x="1033.21" y="0">r</tspan><tspan x="1052.5" y="0">a@mail.uto</tspan><tspan class="cls-8" x="1361.47" y="0">r</tspan><tspan x="1380.38" y="0">ont</tspan><tspan class="cls-7" x="1474.03" y="0">o</tspan><tspan class="cls-9" x="1511.53" y="0">.ca geet.s.chop</tspan><tspan class="cls-7" x="1935.14" y="0">r</tspan><tspan x="1954.43" y="0">a@gmail.com geet.chop</tspan><tspan class="cls-7" x="2638.45" y="0">r</tspan><tspan x="2657.74" y="0">a@mail.uto</tspan><tspan class="cls-10" x="2966.71" y="0">r</tspan><tspan x="2985.62" y="0">ont</tspan><tspan class="cls-7" x="3079.27" y="0">o</tspan><tspan class="cls-9" x="3116.77" y="0">.ca</tspan></text><text class="cls-5" transform="translate(-579.18 715.3)">geet.s.chop<tspan class="cls-11" x="329.9" y="0">r</tspan><tspan x="349.19" y="0">a@gmail.com geet.chop</tspan><tspan class="cls-7" x="1033.21" y="0">r</tspan><tspan x="1052.5" y="0">a@mail.uto</tspan><tspan class="cls-8" x="1361.47" y="0">r</tspan><tspan x="1380.38" y="0">ont</tspan><tspan class="cls-7" x="1474.03" y="0">o</tspan><tspan class="cls-9" x="1511.53" y="0">.ca geet.s.chop</tspan><tspan class="cls-7" x="1935.14" y="0">r</tspan><tspan x="1954.43" y="0">a@gmail.com geet.chop</tspan><tspan class="cls-7" x="2638.45" y="0">r</tspan><tspan x="2657.74" y="0">a@mail.uto</tspan><tspan class="cls-10" x="2966.71" y="0">r</tspan><tspan x="2985.62" y="0">ont</tspan><tspan class="cls-7" x="3079.27" y="0">o</tspan><tspan class="cls-9" x="3116.77" y="0">.ca</tspan></text><text class="cls-5" transform="translate(-486.86 802.81)">geet.s.chop<tspan class="cls-11" x="329.9" y="0">r</tspan><tspan x="349.19" y="0">a@gmail.com geet.chop</tspan><tspan class="cls-6" x="1033.21" y="0">r</tspan><tspan class="cls-12" x="1052.5" y="0">a@mail.uto</tspan><tspan class="cls-10" x="1361.47" y="0">r</tspan><tspan x="1380.37" y="0">ont</tspan><tspan class="cls-6" x="1474.03" y="0">o</tspan><tspan x="1511.53" y="0">.ca geet.s.chop</tspan><tspan class="cls-6" x="1935.14" y="0">r</tspan><tspan class="cls-12" x="1954.43" y="0">a@gmail.com geet.chop</tspan><tspan class="cls-6" x="2638.45" y="0">r</tspan><tspan x="2657.74" y="0">a@mail.uto</tspan><tspan class="cls-10" x="2966.71" y="0">r</tspan><tspan class="cls-9" x="2985.62" y="0">ont</tspan><tspan class="cls-6" x="3079.27" y="0">o</tspan><tspan x="3116.77" y="0">.ca</tspan></text><text class="cls-5" transform="translate(-616.79 890.33)">geet.s.chop<tspan class="cls-11" x="329.9" y="0">r</tspan><tspan x="349.19" y="0">a@gmail.com geet.chop</tspan><tspan class="cls-6" x="1033.21" y="0">r</tspan><tspan x="1052.5" y="0">a@mail.uto</tspan><tspan class="cls-10" x="1361.47" y="0">r</tspan><tspan x="1380.37" y="0">ont</tspan><tspan class="cls-7" x="1474.03" y="0">o</tspan><tspan x="1511.53" y="0">.ca geet.s.chop</tspan><tspan class="cls-6" x="1935.14" y="0">r</tspan><tspan class="cls-12" x="1954.43" y="0">a@gmail.com geet.chop</tspan><tspan class="cls-7" x="2638.45" y="0">r</tspan><tspan x="2657.74" y="0">a@mail.uto</tspan><tspan class="cls-8" x="2966.71" y="0">r</tspan><tspan x="2985.62" y="0">ont</tspan><tspan class="cls-6" x="3079.27" y="0">o</tspan><tspan class="cls-9" x="3116.77" y="0">.ca</tspan></text><text class="cls-5" transform="translate(-982.64 977.84)">geet.s.chop<tspan class="cls-11" x="329.9" y="0">r</tspan><tspan x="349.19" y="0">a@gmail.com geet.chop</tspan><tspan class="cls-7" x="1033.21" y="0">r</tspan><tspan x="1052.5" y="0">a@mail.uto</tspan><tspan class="cls-8" x="1361.47" y="0">r</tspan><tspan x="1380.38" y="0">ont</tspan><tspan class="cls-7" x="1474.03" y="0">o</tspan><tspan class="cls-9" x="1511.53" y="0">.ca geet.s.chop</tspan><tspan class="cls-7" x="1935.14" y="0">r</tspan><tspan x="1954.43" y="0">a@gmail.com geet.chop</tspan><tspan class="cls-7" x="2638.45" y="0">r</tspan><tspan x="2657.74" y="0">a@mail.uto</tspan><tspan class="cls-10" x="2966.71" y="0">r</tspan><tspan x="2985.62" y="0">ont</tspan><tspan class="cls-7" x="3079.27" y="0">o</tspan><tspan class="cls-9" x="3116.77" y="0">.ca</tspan></text><text class="cls-5" transform="translate(-179.14 1065.35)">geet.s.chop<tspan class="cls-6" x="329.9" y="0">r</tspan><tspan x="349.19" y="0">a@gmail.com geet.chop</tspan><tspan class="cls-6" x="1033.21" y="0">r</tspan><tspan x="1052.5" y="0">a@mail.uto</tspan><tspan class="cls-10" x="1361.47" y="0">r</tspan><tspan class="cls-9" x="1380.37" y="0">ont</tspan><tspan class="cls-6" x="1474.03" y="0">o</tspan><tspan x="1511.53" y="0">.ca geet.s.chop</tspan><tspan class="cls-6" x="1935.14" y="0">r</tspan><tspan x="1954.43" y="0">a@gmail.com geet.chop</tspan><tspan class="cls-6" x="2638.45" y="0">r</tspan><tspan class="cls-12" x="2657.74" y="0">a@mail.uto</tspan><tspan class="cls-10" x="2966.71" y="0">r</tspan><tspan x="2985.62" y="0">ont</tspan><tspan class="cls-6" x="3079.27" y="0">o</tspan><tspan x="3116.77" y="0">.ca</tspan></text><text class="cls-5" transform="translate(-789.78 1324.5)">geet.s.chop<tspan class="cls-11" x="329.9" y="0">r</tspan><tspan x="349.19" y="0">a@gmail.com geet.chop</tspan><tspan class="cls-6" x="1033.21" y="0">r</tspan><tspan x="1052.5" y="0">a@mail.uto</tspan><tspan class="cls-10" x="1361.47" y="0">r</tspan><tspan x="1380.37" y="0">ont</tspan><tspan class="cls-7" x="1474.03" y="0">o</tspan><tspan x="1511.53" y="0">.ca geet.s.chop</tspan><tspan class="cls-6" x="1935.14" y="0">r</tspan><tspan class="cls-12" x="1954.43" y="0">a@gmail.com geet.chop</tspan><tspan class="cls-7" x="2638.45" y="0">r</tspan><tspan x="2657.74" y="0">a@mail.uto</tspan><tspan class="cls-8" x="2966.71" y="0">r</tspan><tspan x="2985.62" y="0">ont</tspan><tspan class="cls-6" x="3079.27" y="0">o</tspan><tspan class="cls-9" x="3116.77" y="0">.ca</tspan></text><text class="cls-5" transform="translate(1752.59 1201.6)">geet.s.chop<tspan class="cls-6" x="329.9" y="0">r</tspan><tspan x="349.19" y="0">a@gmail.com geet.chop</tspan><tspan class="cls-6" x="1033.21" y="0">r</tspan><tspan x="1052.5" y="0">a@mail.uto</tspan><tspan class="cls-10" x="1361.47" y="0">r</tspan><tspan class="cls-9" x="1380.37" y="0">ont</tspan><tspan class="cls-6" x="1474.03" y="0">o</tspan><tspan x="1511.53" y="0">.ca geet.s.chop</tspan><tspan class="cls-6" x="1935.14" y="0">r</tspan><tspan x="1954.43" y="0">a@gmail.com geet.chop</tspan><tspan class="cls-6" x="2638.45" y="0">r</tspan><tspan class="cls-12" x="2657.74" y="0">a@mail.uto</tspan><tspan class="cls-10" x="2966.71" y="0">r</tspan><tspan x="2985.62" y="0">ont</tspan><tspan class="cls-6" x="3079.27" y="0">o</tspan><tspan x="3116.77" y="0">.ca</tspan></text><text class="cls-5" transform="translate(-3010.59 1201.6)">geet.s.chop<tspan class="cls-11" x="329.9" y="0">r</tspan><tspan x="349.19" y="0">a@gmail.com geet.chop</tspan><tspan class="cls-11" x="1033.21" y="0">r</tspan><tspan x="1052.5" y="0">a@mail.uto</tspan><tspan class="cls-14" x="1361.47" y="0">r</tspan><tspan class="cls-15" x="1380.37" y="0">ont</tspan><tspan class="cls-11" x="1474.03" y="0">o</tspan><tspan x="1511.53" y="0">.ca geet.s.chop</tspan><tspan class="cls-11" x="1935.14" y="0">r</tspan><tspan x="1954.43" y="0">a@gmail.com geet.chop</tspan><tspan class="cls-11" x="2638.45" y="0">r</tspan><tspan class="cls-13" x="2657.74" y="0">a@mail.uto</tspan><tspan class="cls-10" x="2966.71" y="0">r</tspan><tspan class="cls-13" x="2985.62" y="0">ont</tspan><tspan class="cls-7" x="3079.27" y="0">o</tspan><tspan class="cls-9" x="3116.77" y="0">.ca</tspan></text><text class="cls-5" transform="translate(-724.82 1409.99)">geet.s.chop<tspan class="cls-11" x="329.9" y="0">r</tspan><tspan x="349.19" y="0">a@gmail.com geet.chop</tspan><tspan class="cls-7" x="1033.21" y="0">r</tspan><tspan x="1052.5" y="0">a@mail.uto</tspan><tspan class="cls-8" x="1361.47" y="0">r</tspan><tspan x="1380.38" y="0">ont</tspan><tspan class="cls-7" x="1474.03" y="0">o</tspan><tspan class="cls-9" x="1511.53" y="0">.ca geet.s.chop</tspan><tspan class="cls-7" x="1935.14" y="0">r</tspan><tspan x="1954.43" y="0">a@gmail.com geet.chop</tspan><tspan class="cls-7" x="2638.45" y="0">r</tspan><tspan x="2657.74" y="0">a@mail.uto</tspan><tspan class="cls-10" x="2966.71" y="0">r</tspan><tspan x="2985.62" y="0">ont</tspan><tspan class="cls-7" x="3079.27" y="0">o</tspan><tspan class="cls-9" x="3116.77" y="0">.ca</tspan></text><text class="cls-16" transform="translate(203.17 1220.2)">geet.s.chop<tspan class="cls-17" x="690.1" y="0">r</tspan><tspan x="730.45" y="0">a@gmail.com</tspan></text><text class="cls-18" transform="translate(334.29 188.59)">geet.chop<tspan class="cls-19" x="421.34" y="0">r</tspan><tspan x="449.51" y="0">a@mail.uto</tspan><tspan class="cls-20" x="900.77" y="0">r</tspan><tspan class="cls-21" x="928.39" y="0">ont</tspan><tspan class="cls-19" x="1065.17" y="0">o</tspan><tspan class="cls-22" x="1119.94" y="0">.ca</tspan></text></g></svg>