<svg id="Layer_1" data-name="Layer 1" xmlns="http://www.w3.org/2000/svg" viewBox="0 0 2850.3 2850.3"><defs><style>.cls-1{fill:none;stroke:#fafafa;stroke-miterlimit:10;stroke-width:2px;}</style></defs><title>GLogo_Outline</title><circle class="cls-1" cx="1381.31" cy="1361.15" r="1294.12"/><path class="cls-1" d="M421.32,1361.14c0,530,430.65,960.38,960.69,960,479.63-.34,877-352.41,948-812.22a966.38,966.38,0,0,0,11.31-147.78q0-29.65-1.78-58.89c-3-49.68-44.38-88.33-94.15-88.33H1454.51a73.52,73.52,0,0,0-73.52,73.52v148a73.52,73.52,0,0,0,73.52,73.52h472a27.3,27.3,0,0,1,26.06,35.56,597.06,597.06,0,0,1-67.85,142.88C1777.81,1852,1592.27,1961,1381.32,1961c-332.42,0-601.68-270.42-599.8-603.27,1.87-329.25,270.56-596.33,599.8-596.33A597.35,597.35,0,0,1,1762,897.63a68.23,68.23,0,0,0,88.46-1.38l34.25-30.16c-128.09-130.23-306.32-211-503.41-211-389.94,0-706,316.1-706,706s316.11,706,706.05,706q4.73,0,9.43-.07c1.38,0,2.75,0,4.12-.06l4.51-.1,2.22-.06,3.58-.11q12.35-.4,24.57-1.24l4-.28,3.06-.23q10.28-.79,20.46-1.89l3.42-.37,4.82-.56c1.31-.15,2.63-.31,3.94-.48l3.25-.41,2.32-.31,4.17-.56,4.35-.62c2.91-.42,5.8-.86,8.69-1.31l4.33-.7,4.17-.69,3.87-.68,2.73-.49c.73-.12,1.44-.25,2.18-.39,1.39-.25,2.79-.51,4.18-.78s3-.56,4.43-.86c1.18-.22,2.35-.46,3.53-.7q11.36-2.28,22.59-4.94l3.59-.86c1.44-.35,2.9-.7,4.35-1.07s2.71-.67,4.06-1,2.8-.71,4.19-1.08l2.89-.76,2.3-.62q16.2-4.37,32.06-9.47l4.09-1.33c1.36-.44,2.71-.89,4.07-1.35s2.79-.93,4.17-1.41l5.56-1.93,2.43-.86,2.91-1c1.21-.44,2.41-.87,3.61-1.32,1.41-.51,2.83-1,4.23-1.57q3.29-1.21,6.56-2.49c2.23-.85,4.44-1.72,6.65-2.61.35-.12.7-.26,1-.41q2.61-1,5.21-2.1c1.08-.44,2.16-.88,3.24-1.34q2.44-1,4.88-2c.49-.2,1-.4,1.44-.61,1.81-.77,3.61-1.54,5.41-2.33l.9-.39q2.72-1.18,5.4-2.39c2.79-1.25,5.6-2.52,8.38-3.82q3.35-1.55,6.66-3.13l.38-.18q3.25-1.55,6.49-3.14,3-1.47,6-3,4-2,8-4.06,3-1.56,6.05-3.17l.51-.27c2.18-1.16,4.35-2.33,6.53-3.51q3-1.62,5.93-3.27.94-.51,1.89-1.05,2.38-1.33,4.75-2.69c.87-.49,1.73-1,2.59-1.49l4.68-2.72q6.54-3.84,13-7.82l6-3.76.67-.43q2.8-1.77,5.58-3.57.51-.31,1-.66,25.19-16.31,48.86-34.66,3-2.31,5.94-4.65c2-1.57,3.94-3.14,5.9-4.73s3.9-3.17,5.84-4.78,3.87-3.22,5.79-4.84l.37-.31q20.58-17.43,39.79-36.37a11.59,11.59,0,0,1,15.8-.46l43.25,38.09.07.06,53.49,47.1a11.6,11.6,0,0,1,.59,16.86q-26.28,26.46-54.77,50.6c-.17.16-.33.3-.5.44-.6.5-1.19,1-1.79,1.5-1.32,1.12-2.64,2.22-4,3.32-1.17,1-2.35,2-3.54,2.92q-4.23,3.48-8.49,6.9l-4,3.22q-4.07,3.22-8.17,6.38l-4.11,3.15c-1.38,1.06-2.75,2.1-4.13,3.13q-8.28,6.24-16.71,12.27-4.21,3-8.47,6-2.11,1.49-4.25,3s0,0,0,0c-1.32.91-2.66,1.82-4,2.72-1.52,1-3.06,2.07-4.59,3.1s-2.88,1.94-4.32,2.88c-1.92,1.27-3.84,2.54-5.77,3.79-1,.64-2,1.27-2.92,1.89q-4.37,2.82-8.77,5.58c-2.94,1.85-5.87,3.68-8.83,5.48-1.48.91-3,1.81-4.45,2.7q-6.67,4-13.44,7.93c-1.5.88-3,1.74-4.51,2.6-3,1.72-6,3.43-9.09,5.1-1.1.62-2.21,1.23-3.32,1.84l-2.3,1.25q-8.1,4.43-16.33,8.67l-1.62.83q-4.35,2.25-8.74,4.43c-3.11,1.57-6.24,3.1-9.38,4.62l-1,.47q-4.17,2-8.37,4l-.1,0q-2.37,1.13-4.75,2.21t-4.76,2.19l-4.78,2.15c-1.59.72-3.2,1.43-4.79,2.12s-3.2,1.41-4.81,2.1-3.21,1.39-4.82,2.07q-4.72,2-9.48,4l-.21.08q-4.2,1.73-8.42,3.41l-2,.78c-1.42.57-2.83,1.12-4.25,1.67q-4.9,1.92-9.84,3.76c-1.36.52-2.73,1-4.1,1.53q-10.3,3.81-20.75,7.35-2.51.87-5,1.69-10.11,3.38-20.3,6.49-5,1.53-10,3l-3.86,1.12-4.16,1.18-3.05.85c-1.43.4-2.86.8-4.29,1.18q-10.27,2.8-20.65,5.34c-1.68.42-3.35.82-5,1.22l-.6.14c-1.59.38-3.18.76-4.77,1.12q-2.85.68-5.73,1.31l-3.87.86q-18.74,4.13-37.79,7.42c-1.37.24-2.74.48-4.11.7s-2.62.44-3.94.65l-3.58.58-4.74.74-2,.3q-3.75.57-7.53,1.1l-1,.14c-1.75.25-3.5.49-5.26.72-2.1.29-4.21.56-6.32.83l-3.85.47c-2.09.26-4.18.51-6.29.75-1.71.2-3.43.39-5.15.57-1.11.13-2.22.24-3.34.36l-2.34.24-2,.2-3.18.31c-3.08.3-6.18.58-9.28.84l-3.27.27c-1.27.11-2.54.21-3.82.3-1.82.14-3.64.28-5.47.4s-3.69.26-5.53.37q-5.48.36-11,.63l-2.07.1c-2.06.11-4.14.2-6.21.28q-3.6.15-7.23.27l-4.21.13-3.77.1-2.81.06c-1.08,0-2.17.05-3.26.06-1.64,0-3.29.06-4.93.07l-4.3,0-5.58,0c-473.84,0-857.95-384.11-857.95-857.95s384.11-857.95,858-857.95c242.51,0,461.52,100.61,617.56,262.38l21.25-18.71a68.17,68.17,0,0,0,.44-102c-169.76-151.61-393.74-243.77-639.25-243.77C851.13,401.15,421.32,831,421.32,1361.14Z"/></svg>