<?xml version="1.0" encoding="utf-8"?>
<!-- Generator: Adobe Illustrator 22.1.0, SVG Export Plug-In . SVG Version: 6.00 Build 0)  -->
<svg version="1.1" id="Layer_1" xmlns="http://www.w3.org/2000/svg" xmlns:xlink="http://www.w3.org/1999/xlink" x="0px" y="0px"
	 viewBox="0 0 2850.3 2850.3" style="enable-background:new 0 0 2850.3 2850.3;" xml:space="preserve">
<style type="text/css">
	.st0{fill:#E0F7F4;}
	.st1{fill:none;stroke:#000000;stroke-miterlimit:10;}
	.st2{fill:#2A2B2C;}
	.st3{fill:#00ACC1;}
	.st4{fill:none;}
</style>
<g>
	<circle class="st0" cx="1381.3" cy="1361.1" r="1294.1"/>
</g>
<g>
	<path d="M-4425.5-958.9c31.8,0,61.7,12.4,84.2,34.9s34.9,52.4,34.9,84.2s-12.4,61.7-34.9,84.2c-22.5,22.5-52.4,34.9-84.2,34.9
		s-61.7-12.4-84.2-34.9c-22.5-22.5-34.9-52.4-34.9-84.2s12.4-61.7,34.9-84.2S-4457.3-958.9-4425.5-958.9 M-4425.5-959.9
		c-66.3,0-120.1,53.8-120.1,120.1s53.8,120.1,120.1,120.1s120.1-53.8,120.1-120.1S-4359.2-959.9-4425.5-959.9L-4425.5-959.9z"/>
</g>
<g>
	<path d="M-4425.5-1078.4c32.2,0,63.5,6.3,92.9,18.8c28.4,12,53.9,29.2,75.8,51.1c21.9,21.9,39.1,47.4,51.1,75.8
		c12.4,29.4,18.7,60.7,18.7,92.9s-6.3,63.5-18.7,92.9c-12,28.4-29.2,53.9-51.1,75.8c-21.9,21.9-47.4,39.1-75.8,51.1
		c-29.4,12.4-60.7,18.7-92.9,18.7c-32.2,0-63.5-6.3-92.9-18.7c-28.4-12-53.9-29.2-75.8-51.1c-21.9-21.9-39.1-47.4-51.1-75.8
		c-12.4-29.4-18.8-60.7-18.8-92.9s6.3-63.5,18.8-92.9c12-28.4,29.2-53.9,51.1-75.8c21.9-21.9,47.4-39.1,75.8-51.1
		C-4488.9-1072.1-4457.7-1078.4-4425.5-1078.4 M-4425.5-1079.4c-132.3,0-239.6,107.3-239.6,239.6s107.3,239.6,239.6,239.6
		s239.6-107.3,239.6-239.6S-4293.1-1079.4-4425.5-1079.4L-4425.5-1079.4z"/>
</g>
<path class="st1" d="M-1014.6,644.7"/>
<path class="st1" d="M-1254,401.1"/>
<g>
	<path d="M-4425.5-1198.5c48.4,0,95.4,9.5,139.6,28.2c42.7,18.1,81.1,43.9,114,76.9c32.9,32.9,58.8,71.3,76.9,114
		c18.7,44.2,28.2,91.2,28.2,139.6s-9.5,95.4-28.2,139.6c-18.1,42.7-43.9,81.1-76.9,114c-32.9,32.9-71.3,58.8-114,76.9
		c-44.2,18.7-91.2,28.2-139.6,28.2s-95.4-9.5-139.6-28.2c-42.7-18.1-81.1-43.9-114-76.9c-32.9-32.9-58.8-71.3-76.9-114
		c-18.7-44.2-28.2-91.2-28.2-139.6s9.5-95.4,28.2-139.6c18.1-42.7,43.9-81.1,76.9-114c32.9-32.9,71.3-58.8,114-76.9
		C-4520.9-1189-4473.9-1198.5-4425.5-1198.5 M-4425.5-1199.5c-198.6,0-359.7,161-359.7,359.7s161,359.7,359.7,359.7
		s359.7-161,359.7-359.7S-4226.8-1199.5-4425.5-1199.5L-4425.5-1199.5z"/>
</g>
<g>
	<path d="M-4425.5-1438.6c80.8,0,159.3,15.8,233.1,47.1c35.5,15,69.7,33.6,101.7,55.2c31.7,21.4,61.5,46,88.6,73.1
		c27.1,27.1,51.7,56.9,73.1,88.6c21.6,32,40.2,66.2,55.2,101.7c31.2,73.8,47.1,152.2,47.1,233.1s-15.8,159.3-47.1,233.1
		c-15,35.5-33.6,69.7-55.2,101.7c-21.4,31.7-46,61.5-73.1,88.6c-27.1,27.1-56.9,51.7-88.6,73.1c-32,21.6-66.2,40.2-101.7,55.2
		c-73.8,31.2-152.2,47.1-233.1,47.1s-159.3-15.8-233.1-47.1c-35.5-15-69.7-33.6-101.7-55.2c-31.7-21.4-61.5-46-88.6-73.1
		c-27.1-27.1-51.7-56.9-73.1-88.6c-21.6-32-40.2-66.2-55.2-101.7c-31.2-73.8-47.1-152.2-47.1-233.1s15.8-159.3,47.1-233.1
		c15-35.5,33.6-69.7,55.2-101.7c21.4-31.7,46-61.5,73.1-88.6c27.1-27.1,56.9-51.7,88.6-73.1c32-21.6,66.2-40.2,101.7-55.2
		C-4584.7-1422.8-4506.3-1438.6-4425.5-1438.6 M-4425.5-1439.6c-331.3,0-599.8,268.5-599.8,599.8S-4756.7-240-4425.5-240
		s599.8-268.5,599.8-599.8S-4094.2-1439.6-4425.5-1439.6L-4425.5-1439.6z"/>
</g>
<g>
	<path d="M-4425.5-1798.8c65.1,0,130.1,6.6,193.3,19.5c61.6,12.6,122.1,31.4,180,55.9c56.8,24,111.6,53.8,162.9,88.4
		c50.8,34.3,98.5,73.7,141.9,117.1c43.4,43.4,82.8,91.1,117.1,141.9c34.6,51.3,64.4,106.1,88.4,162.9c24.5,57.9,43.3,118.4,55.9,180
		c12.9,63.2,19.5,128.2,19.5,193.3s-6.6,130.1-19.5,193.3c-12.6,61.6-31.4,122.1-55.9,180c-24,56.8-53.8,111.6-88.4,162.9
		c-34.3,50.8-73.7,98.5-117.1,141.9c-43.4,43.4-91.1,82.8-141.9,117.1c-51.3,34.6-106.1,64.4-162.9,88.4
		c-57.9,24.5-118.4,43.3-180,55.9c-63.2,12.9-128.2,19.5-193.3,19.5c-65.1,0-130.1-6.6-193.3-19.5c-61.6-12.6-122.1-31.4-180-55.9
		c-56.8-24-111.6-53.8-162.9-88.4c-50.8-34.3-98.5-73.7-141.9-117.1c-43.4-43.4-82.8-91.1-117.1-141.9
		c-34.6-51.3-64.4-106.1-88.4-162.9c-24.5-57.9-43.3-118.4-55.9-180c-12.9-63.2-19.5-128.2-19.5-193.3s6.6-130.1,19.5-193.3
		c12.6-61.6,31.4-122.1,55.9-180c24-56.8,53.8-111.6,88.4-162.9c34.3-50.8,73.7-98.5,117.1-141.9c43.4-43.4,91.1-82.8,141.9-117.1
		c51.3-34.6,106.1-64.4,162.9-88.4c57.9-24.5,118.4-43.3,180-55.9C-4555.6-1792.2-4490.5-1798.8-4425.5-1798.8 M-4425.5-1799.8
		c-530.2,0-960,429.8-960,960s429.8,960,960,960s960-429.8,960-960S-3895.3-1799.8-4425.5-1799.8L-4425.5-1799.8z"/>
</g>
<g>
	<path class="st2" d="M-485.1,1425.1c0,50.3-3.9,99.6-11.3,147.8c-71,459.8-468.4,811.9-948,812.2c-530,0.4-960.7-430-960.7-960
		c0-530.2,429.8-960,960-960c98.2,0,192.9,14.7,282.2,42.1c91,27.9,176.3,69.1,253.6,121.2c31.6,21.3,40.2,64.1,19.2,95.9l-6.2,9.5
		c-150.6-119.7-341.3-191.3-548.7-191.3c-486.7,0-885.3,400.9-882.6,887.6c2.7,485.1,396.8,877.6,882.6,877.6
		c197.9,0,380.5-65.1,527.7-175.1c18.1-13.5,22.2-38.9,9.6-57.5l-72-106.4c-9.8-14.5-29.8-17.6-43.5-6.8
		c-115.4,90.8-260.9,145.2-419,145.9c-377.1,1.5-682.9-301-685.5-678c-2.5-379.2,304.1-687.3,682.7-687.3
		c166.7,0,319.5,59.8,438.1,159.1l-4.9,7.5c-21.3,32.3-64.9,41-96.9,19.3c-56.6-38.4-120.2-67.4-188.4-84.7
		c-47.3-12-96.8-18.3-147.8-18.3c-331.3,0-599.8,268.5-599.8,599.8s268.5,599.8,599.8,599.8c250.6,0,465.2-153.6,555-371.8
		c15.7-38.2-12.4-80.2-53.8-80.2h-406.7c-52.4,0-94.8-42.5-94.8-94.8v-105.4c0-52.4,42.5-94.8,94.8-94.8h777.8
		c44.8,0,82.2,34.6,85.3,79.4C-485.9,1379.7-485.1,1402.3-485.1,1425.1z"/>
</g>
<g>
	<path d="M-5767.1,173.3c32.2,0,63.5,6.3,92.9,18.7c28.4,12,53.9,29.2,75.8,51.1c21.9,21.9,39.1,47.4,51.1,75.8
		c12.4,29.4,18.8,60.7,18.8,92.9s-6.3,63.5-18.8,92.9c-12,28.4-29.2,53.9-51.1,75.8s-47.4,39.1-75.8,51.1
		c-29.4,12.4-60.7,18.7-92.9,18.7c-32.2,0-63.5-6.3-92.9-18.7c-28.4-12-53.9-29.2-75.8-51.1s-39.1-47.4-51.1-75.8
		c-12.4-29.4-18.8-60.7-18.8-92.9s6.3-63.5,18.8-92.9c12-28.4,29.2-53.9,51.1-75.8c21.9-21.9,47.4-39.1,75.8-51.1
		C-5830.5,179.6-5799.3,173.3-5767.1,173.3 M-5767.1,172.3c-132.3,0-239.6,107.3-239.6,239.6s107.3,239.6,239.6,239.6
		c132.3,0,239.6-107.3,239.6-239.6S-5634.8,172.3-5767.1,172.3L-5767.1,172.3z"/>
</g>
<g>
	<path class="st2" d="M2341.3,1361.1c0,50.3-3.9,99.6-11.3,147.8c-71,459.8-468.4,811.9-948,812.2c-530,0.4-960.7-430-960.7-960
		c0-530.2,429.8-960,960-960c245.5,0,469.5,92.2,639.2,243.8c30.5,27.2,30.2,75-0.4,102l-21.2,18.7
		c-156-161.8-375.1-262.4-617.6-262.4c-473.8,0-858,384.1-858,857.9s384.1,857.9,858,857.9c211,0,404.3-76.2,553.7-202.6
		c35.4-30,36-84.4,1.2-115l0,0c-28.3-24.9-70.5-25.3-99.2-1c-123,104-282,166.7-455.6,166.7c-389.9,0-706-316.1-706-706
		s316.1-706,706-706c197.1,0,375.3,80.8,503.4,211l-34.2,30.2c-25.1,22.1-62.6,22.7-88.5,1.4c-103.6-85.2-236.2-136.3-380.7-136.3
		c-329.2,0-597.9,267.1-599.8,596.3c-1.9,332.8,267.4,603.3,599.8,603.3c211,0,396.5-108.9,503.4-273.6
		c28.6-44,51.5-91.9,67.8-142.9c5.6-17.6-7.6-35.6-26-35.6h-472c-40.6,0-73.5-32.9-73.5-73.5v-148c0-40.6,32.9-73.5,73.5-73.5h790.9
		c49.8,0,91.1,38.7,94.1,88.3C2340.7,1321.7,2341.3,1341.4,2341.3,1361.1z"/>
</g>
<g>
	<path d="M-6127.8,504.6c80.8,0,159.3,15.8,233.1,47.1c35.5,15,69.7,33.6,101.7,55.2c31.7,21.4,61.5,46,88.6,73.1
		c27.1,27.1,51.7,56.9,73.1,88.6c21.6,32,40.2,66.2,55.2,101.7c31.2,73.8,47.1,152.2,47.1,233.1s-15.8,159.3-47.1,233.1
		c-15,35.5-33.6,69.7-55.2,101.7c-21.4,31.7-46,61.5-73.1,88.6c-27.1,27.1-56.9,51.7-88.6,73.1c-32,21.6-66.2,40.2-101.7,55.2
		c-73.8,31.2-152.2,47.1-233.1,47.1s-159.3-15.8-233.1-47.1c-35.5-15-69.7-33.6-101.7-55.2c-31.7-21.4-61.5-46-88.6-73.1
		c-27.1-27.1-51.7-56.9-73.1-88.6c-21.6-32-40.2-66.2-55.2-101.7c-31.2-73.8-47.1-152.2-47.1-233.1s15.8-159.3,47.1-233.1
		c15-35.5,33.6-69.7,55.2-101.7c21.4-31.7,46-61.5,73.1-88.6c27.1-27.1,56.9-51.7,88.6-73.1c32-21.6,66.2-40.2,101.7-55.2
		C-6287.1,520.4-6208.7,504.6-6127.8,504.6 M-6127.8,503.6c-331.3,0-599.8,268.5-599.8,599.8s268.5,599.8,599.8,599.8
		s599.8-268.5,599.8-599.8S-5796.6,503.6-6127.8,503.6L-6127.8,503.6z"/>
</g>
<g>
	<path d="M-6127.8,144.4c65.1,0,130.1,6.6,193.3,19.5c61.6,12.6,122.1,31.4,180,55.9c56.8,24,111.6,53.8,162.9,88.4
		c50.8,34.3,98.5,73.7,141.9,117.1c43.4,43.4,82.8,91.1,117.1,141.9c34.6,51.3,64.4,106.1,88.4,162.9c24.5,57.9,43.3,118.4,55.9,180
		c12.9,63.2,19.5,128.2,19.5,193.3s-6.6,130.1-19.5,193.3c-12.6,61.6-31.4,122.1-55.9,180c-24,56.8-53.8,111.6-88.4,162.9
		c-34.3,50.8-73.7,98.5-117.1,141.9c-43.4,43.4-91.1,82.8-141.9,117.1c-51.3,34.6-106.1,64.4-162.9,88.4
		c-57.9,24.5-118.4,43.3-180,55.9c-63.2,12.9-128.2,19.5-193.3,19.5c-65.1,0-130.1-6.6-193.3-19.5c-61.6-12.6-122.1-31.4-180-55.9
		c-56.8-24-111.6-53.8-162.9-88.4c-50.8-34.3-98.5-73.7-141.9-117.1c-43.4-43.4-82.8-91.1-117.1-141.9
		c-34.6-51.3-64.4-106.1-88.4-162.9c-24.5-57.9-43.3-118.4-55.9-180c-12.9-63.2-19.5-128.2-19.5-193.3s6.6-130.1,19.5-193.3
		c12.6-61.6,31.4-122.1,55.9-180c24-56.8,53.8-111.6,88.4-162.9c34.3-50.8,73.7-98.5,117.1-141.9c43.4-43.4,91.1-82.8,141.9-117.1
		c51.3-34.6,106.1-64.4,162.9-88.4c57.9-24.5,118.4-43.3,180-55.9C-6257.9,150.9-6192.9,144.4-6127.8,144.4 M-6127.8,143.4
		c-530.2,0-960,429.8-960,960s429.8,960,960,960s960-429.8,960-960S-5597.6,143.4-6127.8,143.4L-6127.8,143.4z"/>
</g>
<g>
	<path class="st3" d="M1892.9,1863.4l96.8,85.2c5,4.4,5.3,12.1,0.6,16.9c-155.4,156.6-370.9,253.6-609,253.6
		c-473.8,0-858-384.1-858-857.9s384.1-857.9,858-857.9c242.5,0,461.5,100.6,617.6,262.4l-114.1,100.5
		c-128.1-130.2-306.3-211-503.4-211c-389.9,0-706,316.1-706,706s316.1,706,706,706c193.2,0,368.3-77.6,495.8-203.3
		C1881.4,1859.6,1888.3,1859.4,1892.9,1863.4z"/>
</g>
<path class="st3" d="M-1445.1,2307.7c-486.7,0-885.6-401.5-882.6-888.2c3-484.9,397-877,882.6-877c207.4,0,398.1,71.5,548.7,191.3
	l-110.6,167.7c-117.7-98.6-269.2-158.2-434.5-159.1c-376.7-1.9-683.8,301.4-686.2,678.1c-2.5,379.1,304.1,687.2,682.7,687.2
	c161.1,0,309.1-55.8,425.9-149.1c11.4-9.1,28.2-6.5,36.4,5.6l84.1,124.3c7.4,10.9,5.1,25.8-5.3,33.9
	C-1053.5,2238.6-1241.2,2307.7-1445.1,2307.7z"/>
<g>
	<path d="M-5081.1,957.1v293h-1046v-293H-5081.1 M-5080.1,956.1h-1048v295h1048V956.1L-5080.1,956.1z"/>
</g>
<polyline class="st4" points="-1053,971.3 -1007.1,901.5 -896.4,733.8 -853.7,669 "/>
</svg>
