<svg id="Layer_1" data-name="Layer 1" xmlns="http://www.w3.org/2000/svg" xmlns:xlink="http://www.w3.org/1999/xlink" viewBox="0 0 1920 1920"><defs><style>.cls-1{fill:none;}.cls-2{clip-path:url(#clip-path);}.cls-3{font-size:94.71px;fill:#4dd0e1;}.cls-3,.cls-4,.cls-5{font-family:AvenirNext-UltraLight, Avenir Next;}.cls-4,.cls-5{font-size:58.05px;}.cls-4{fill:#fafafa;}.cls-5{fill:#c0db52;}</style><clipPath id="clip-path"><path class="cls-1" d="M1015.6,68.49,951.9,403.37c-21.77,111.79,13.24,104.34,151.63,171.12,33.54,16.13,115.78,40.08,119.63,97.58,7.59,120.35-90.25,380.57-143.34,472-25.43,43.57-151.64,236.23-206.17,255.15-83.16,29.7-183.27-141.61-324.7-31.33l-246.32,218c-237.53,206.32,308.14,403,505.07,310.82,484.29-230.53,1024-1376.78,597.91-1787.14C1309.49,18.78,1047.36-62.46,1015.6,68.49Z"/></clipPath></defs><title>phone_1</title><g class="cls-2"><text class="cls-3" transform="translate(261.35 1709.69)">+1 (647) 936 8004</text><text class="cls-4" transform="translate(212.26 234.86)">+1 (647) 936 8004</text><text class="cls-4" transform="translate(1182.34 234.86)">+1 (647) 936 8004</text><text class="cls-4" transform="translate(712.98 234.86)">+91 9811014220</text><text class="cls-4" transform="translate(1683.06 234.86)">+91 9811014220</text><text class="cls-4" transform="translate(163.1 149.55)">+1 (647) 936 8004</text><text class="cls-4" transform="translate(1133.18 149.55)">+1 (647) 936 8004</text><text class="cls-4" transform="translate(663.81 149.55)">+91 9811014220</text><text class="cls-4" transform="translate(1633.89 149.55)">+91 9811014220</text><text class="cls-4" transform="translate(694.25 64.24)">+1 (647) 936 8004</text><text class="cls-4" transform="translate(1664.33 64.24)">+1 (647) 936 8004</text><text class="cls-4" transform="translate(1194.96 64.24)">+91 9811014220</text><text class="cls-4" transform="translate(572.92 320.17)">+1 (647) 936 8004</text><text class="cls-5" transform="translate(1073.63 320.17)">+91 9811014220</text><text class="cls-4" transform="translate(-41.15 405.48)">+1 (647) 936 8004</text><text class="cls-4" transform="translate(928.93 405.48)">+1 (647) 936 8004</text><text class="cls-4" transform="translate(459.56 405.48)">+91 9811014220</text><text class="cls-4" transform="translate(1429.64 405.48)">+91 9811014220</text><text class="cls-4" transform="translate(694.25 490.79)">+1 (647) 936 8004</text><text class="cls-4" transform="translate(1664.33 490.79)">+1 (647) 936 8004</text><text class="cls-4" transform="translate(1194.96 490.79)">+91 9811014220</text><text class="cls-4" transform="translate(163.1 576.1)">+1 (647) 936 8004</text><text class="cls-4" transform="translate(1133.18 576.1)">+1 (647) 936 8004</text><text class="cls-4" transform="translate(663.81 576.1)">+91 9811014220</text><text class="cls-4" transform="translate(1633.89 576.1)">+91 9811014220</text><text class="cls-4" transform="translate(415.46 661.41)">+1 (647) 936 8004</text><text class="cls-4" transform="translate(1385.54 661.41)">+1 (647) 936 8004</text><text class="cls-4" transform="translate(929.81 661.41)">+91 9811014220</text><text class="cls-4" transform="translate(1886.25 661.41)">+91 9811014220</text><text class="cls-4" transform="translate(-115.69 746.72)">+1 (647) 936 8004</text><text class="cls-4" transform="translate(868.03 746.72)">+1 (647) 936 8004</text><text class="cls-4" transform="translate(385.02 746.72)">+91 9811014220</text><text class="cls-4" transform="translate(1355.1 746.72)">+91 9811014220</text><text class="cls-4" transform="translate(245.33 832.03)">+1 (647) 936 8004</text><text class="cls-4" transform="translate(1215.41 832.03)">+1 (647) 936 8004</text><text class="cls-4" transform="translate(746.04 832.04)">+91 9811014220</text><text class="cls-4" transform="translate(1716.12 832.03)">+91 9811014220</text><text class="cls-4" transform="translate(446.95 917.34)">+1 (647) 936 8004</text><text class="cls-4" transform="translate(1403.39 917.35)">+1 (647) 936 8004</text><text class="cls-4" transform="translate(947.66 917.35)">+91 9811014220</text><text class="cls-4" transform="translate(1917.74 917.35)">+91 9811014220</text><text class="cls-4" transform="translate(-71.58 1002.66)">+1 (647) 936 8004</text><text class="cls-4" transform="translate(898.49 1002.66)">+1 (647) 936 8004</text><text class="cls-4" transform="translate(429.13 1002.66)">+91 9811014220</text><text class="cls-4" transform="translate(1385.57 1002.66)">+91 9811014220</text><text class="cls-4" transform="translate(509.36 1087.97)">+1 (647) 936 8004</text><text class="cls-4" transform="translate(1479.44 1087.97)">+1 (647) 936 8004</text><text class="cls-4" transform="translate(1010.07 1087.97)">+91 9811014220</text><text class="cls-4" transform="translate(10.64 1173.28)">+1 (647) 936 8004</text><text class="cls-4" transform="translate(980.72 1173.28)">+1 (647) 936 8004</text><text class="cls-4" transform="translate(511.36 1173.28)">+91 9811014220</text><text class="cls-4" transform="translate(1481.44 1173.28)">+91 9811014220</text><text class="cls-4" transform="translate(193.53 1258.59)">+1 (647) 936 8004</text><text class="cls-4" transform="translate(1163.61 1258.59)">+1 (647) 936 8004</text><text class="cls-4" transform="translate(707.88 1258.59)">+91 9811014220</text><text class="cls-4" transform="translate(1664.33 1258.59)">+91 9811014220</text><text class="cls-4" transform="translate(119 1343.9)">+1 (647) 936 8004</text><text class="cls-4" transform="translate(1089.08 1343.9)">+1 (647) 936 8004</text><text class="cls-4" transform="translate(633.35 1343.9)">+91 9811014220</text><text class="cls-4" transform="translate(1589.79 1343.9)">+91 9811014220</text><text class="cls-4" transform="translate(589.09 1429.21)">+1 (647) 936 8004</text><text class="cls-4" transform="translate(1545.53 1429.21)">+1 (647) 936 8004</text><text class="cls-4" transform="translate(1076.16 1429.21)">+91 9811014220</text><text class="cls-4" transform="translate(134.41 1429.21)">+91 9811014220</text><text class="cls-4" transform="translate(95.6 1514.52)">+1 (647) 936 8004</text><text class="cls-4" transform="translate(1047.85 1514.52)">+1 (647) 936 8004</text><text class="cls-4" transform="translate(592.12 1514.52)">+91 9811014220</text><text class="cls-4" transform="translate(1548.56 1514.52)">+91 9811014220</text><text class="cls-4" transform="translate(212.26 1599.83)">+1 (647) 936 8004</text><text class="cls-4" transform="translate(1182.34 1599.83)">+1 (647) 936 8004</text><text class="cls-4" transform="translate(712.98 1599.83)">+91 9811014220</text><text class="cls-4" transform="translate(1683.06 1599.83)">+91 9811014220</text><text class="cls-4" transform="translate(340.77 1795.02)">+1 (647) 936 8004</text><text class="cls-4" transform="translate(1310.85 1795.02)">+1 (647) 936 8004</text><text class="cls-4" transform="translate(841.48 1795.02)">+91 9811014220</text><text class="cls-4" transform="translate(1811.56 1795.02)">+91 9811014220</text><text class="cls-4" transform="translate(245.33 1880.33)">+1 (647) 936 8004</text><text class="cls-4" transform="translate(1215.41 1880.33)">+1 (647) 936 8004</text><text class="cls-4" transform="translate(746.04 1880.33)">+91 9811014220</text><text class="cls-4" transform="translate(1716.12 1880.33)">+91 9811014220</text></g></svg>