<svg xmlns="http://www.w3.org/2000/svg" viewBox="0 0 1920 1080"><defs><style>.cls-1{fill:#4dd0e1;}.cls-2,.cls-3,.cls-4,.cls-5,.cls-6{fill:#2a2b2c;}.cls-3{font-size:91.71px;}.cls-3,.cls-4,.cls-5{font-family:Gravity-UltraLight, Gravity;}.cls-4{font-size:57.55px;}.cls-5{font-size:65.06px;}.cls-6{opacity:0.5;}</style></defs><title>Artboard 2</title><g id="Layer_2" data-name="Layer 2"><rect class="cls-1" x="0.5" y="0.5" width="1919" height="1079"/><path d="M1919,1V1079H1V1H1919m1-1H0V1080H1920V0Z"/><g id="Skill"><path class="cls-2" d="M224.84,565.62A68.64,68.64,0,1,1,287,491.1,68.71,68.71,0,0,1,224.84,565.62ZM212.59,429.79a67.74,67.74,0,1,0,73.56,61.39A67.82,67.82,0,0,0,212.59,429.79Z"/><path class="cls-2" d="M335.31,682.11,137,700l-2.73-30.32a83.8,83.8,0,0,1,75.86-90.89l31.58-2.85a83.81,83.81,0,0,1,90.89,75.86ZM137.79,699,334.34,681.3l-2.65-29.43a82.92,82.92,0,0,0-89.92-75l-31.58,2.85a82.91,82.91,0,0,0-75.05,89.92Z"/><path class="cls-2" d="M548.83,425.76,358,443a5.81,5.81,0,0,1-6.3-5.25l-.92-10.25a5.8,5.8,0,0,1,5.25-6.29L546.86,404a5.81,5.81,0,0,1,6.3,5.26l.92,10.24A5.81,5.81,0,0,1,548.83,425.76Zm-192.75-3.7a4.9,4.9,0,0,0-4.44,5.32l.92,10.25a4.9,4.9,0,0,0,5.33,4.44l190.86-17.2a4.91,4.91,0,0,0,4.44-5.33l-.92-10.24a4.91,4.91,0,0,0-5.33-4.45Z"/><path class="cls-2" d="M559.19,540.77,368.34,558a5.81,5.81,0,0,1-6.3-5.26l-.92-10.24a5.81,5.81,0,0,1,5.25-6.3L557.23,519a5.82,5.82,0,0,1,6.3,5.26l.92,10.24A5.81,5.81,0,0,1,559.19,540.77Zm-192.74-3.7A4.92,4.92,0,0,0,362,542.4l.93,10.24a4.91,4.91,0,0,0,5.33,4.45l190.85-17.21a4.91,4.91,0,0,0,4.45-5.33l-.92-10.24a4.92,4.92,0,0,0-5.33-4.45Z"/><path class="cls-2" d="M570,661l-190.86,17.2a5.81,5.81,0,0,1-6.3-5.25L372,662.65a5.8,5.8,0,0,1,5.26-6.29l190.85-17.21a5.81,5.81,0,0,1,6.3,5.25l.92,10.25A5.81,5.81,0,0,1,570,661Zm-192.74-3.71a4.92,4.92,0,0,0-4.45,5.33l.92,10.25a4.91,4.91,0,0,0,5.33,4.44L570,660.06a4.93,4.93,0,0,0,4.45-5.33l-.93-10.25a4.9,4.9,0,0,0-5.33-4.44Z"/></g><g id="Terminal"><rect class="cls-2" x="243.33" y="228.59" width="86.06" height="1.2" transform="translate(-62.23 115.1) rotate(-20.55)"/><polygon class="cls-2" points="147.63 281.2 146.69 280.46 205.54 205.94 112.21 188.48 112.43 187.31 207.71 205.13 147.63 281.2"/><path class="cls-2" d="M371.62,247.11l-237.38,89a7.78,7.78,0,0,1-10-4.55L65.79,175.63a7.78,7.78,0,0,1,4.55-10l237.38-89a7.8,7.8,0,0,1,10,4.55L376.17,237.1A7.77,7.77,0,0,1,371.62,247.11ZM70.76,166.75a6.58,6.58,0,0,0-3.85,8.47l58.45,155.91a6.59,6.59,0,0,0,8.46,3.85L371.2,246a6.58,6.58,0,0,0,3.85-8.47L316.61,81.61a6.6,6.6,0,0,0-8.47-3.85Z"/></g><g id="Terminal-2" data-name="Terminal"><rect class="cls-2" x="1652.37" y="567.65" width="1.2" height="86.06" transform="translate(578.8 2007.6) rotate(-72.72)"/><polygon class="cls-2" points="1511.5 566.66 1511.21 565.5 1603.4 542.75 1540.39 471.7 1541.29 470.91 1605.61 543.43 1511.5 566.66"/><path class="cls-2" d="M1709.32,677.12l-242.06-75.31a7.79,7.79,0,0,1-5.12-9.73l49.47-159a7.78,7.78,0,0,1,9.73-5.11l242.07,75.31a7.78,7.78,0,0,1,5.11,9.73l-49.47,159A7.77,7.77,0,0,1,1709.32,677.12ZM1521,429.12a6.58,6.58,0,0,0-8.24,4.33l-49.46,159a6.58,6.58,0,0,0,4.32,8.23L1709.68,676a6.58,6.58,0,0,0,8.23-4.32l49.47-159a6.59,6.59,0,0,0-4.33-8.24Z"/></g><g id="Ai"><path class="cls-2" d="M1195.08,629.14l-12.36,26a.47.47,0,0,1-.45.29l-1-.08c-.33,0-.42-.25-.28-.56L1215.7,581c.12-.21.24-.31.45-.29l1.83.14c.22,0,.31.14.4.36l22.55,78.33c.09.33,0,.54-.36.52l-1-.08c-.22,0-.31-.14-.4-.36l-8.09-27.6ZM1217,583.37l-.32,0-20.82,43.91,34.63,2.77Z"/><path class="cls-2" d="M1255.88,660.83c0,.33-.15.42-.47.4l-1-.08c-.32,0-.42-.14-.39-.46l4.35-54.54c0-.32.14-.42.46-.4l1,.08c.32,0,.42.14.39.46Zm5.73-71.85c0,.32-.15.42-.47.39l-1-.08c-.32,0-.42-.14-.39-.46l.46-5.81c0-.32.14-.42.46-.39l1,.07c.33,0,.42.15.4.47Z"/><path class="cls-2" d="M1289.94,713c-.34,0-.68,0-1,0l-140.55-11.21A12.77,12.77,0,0,1,1136.68,688l11.2-140.55a12.78,12.78,0,0,1,13.73-11.69L1302.15,547a12.79,12.79,0,0,1,11.7,13.73l-11.21,140.54A12.76,12.76,0,0,1,1289.94,713Zm-.9-1.54a11.25,11.25,0,0,0,12.11-10.32l11.2-140.54A11.27,11.27,0,0,0,1302,548.47l-140.55-11.21a11.27,11.27,0,0,0-12.11,10.32l-11.21,140.55a11.28,11.28,0,0,0,10.32,12.11Z"/></g><g id="Ps"><path class="cls-2" d="M838.31,588.86c13.87,3.1,20.66,13.63,17.9,26s-13.46,19.42-27.33,16.33l-25.77-5.75-8,36c-.08.33-.21.41-.54.34l-1.21-.27c-.34-.08-.42-.21-.35-.54l17.48-77.83c.08-.33.21-.41.54-.34Zm-9.24,40.37c12.78,2.84,22.72-3.38,25.25-14.72s-3.88-21-16.65-23.83L812,585l-8.59,38.54Z"/><path class="cls-2" d="M904.28,638.26c0,.35-.12.55-.45.48l-1.11-.25c-.22,0-.3-.18-.36-.43-1.59-6.36-5.36-11.71-15.16-13.9-9-2-16.88.51-18.55,8-1.6,7.16,4,11.18,12.17,15.89l4,2.28c10.14,5.85,15,11.45,13.18,19.7-2.06,9.25-10.54,13-22.1,10.45-9.69-2.16-17.17-8-18.47-18.23,0-.35.12-.55.45-.47l1.21.27c.22.05.31.18.37.43.8,7.8,7.39,14,17,16.15,9,2,17.62-.23,19.56-8.93,1.72-7.71-3.68-12.5-13.1-18L879,649.5c-8.7-5.06-14-9.61-12.27-17.54,1.94-8.7,10.62-11.85,20.86-9.56C899,625,902.93,631.37,904.28,638.26Z"/><path class="cls-2" d="M906.6,736.59a12.58,12.58,0,0,1-2.77-.31L758.87,704a12.78,12.78,0,0,1-9.67-15.23l32.34-145a12.8,12.8,0,0,1,15.22-9.67l145,32.34a12.76,12.76,0,0,1,9.67,15.22l-32.33,145A12.79,12.79,0,0,1,906.6,736.59Zm-2.45-1.77a11.26,11.26,0,0,0,13.43-8.53l32.34-145a11.25,11.25,0,0,0-8.53-13.42l-145-32.34A11.26,11.26,0,0,0,783,544.1L750.67,689.05a11.26,11.26,0,0,0,8.53,13.43Z"/></g><g id="Ableton"><path class="cls-2" d="M993.83,938.71c.17,0,.25,0,.29.19l.13.53c0,.18,0,.25-.19.3l-24.55,5.77c-.18,0-.25,0-.29-.18l-9.85-42.15c0-.18,0-.25.18-.29l.54-.13c.18,0,.25,0,.29.18l9.79,41.35Z"/><path class="cls-2" d="M993.64,897.56c.05.18,0,.26-.18.3l-.53.13c-.18,0-.26,0-.3-.19l-.75-3.22c0-.17,0-.25.18-.29l.53-.13c.18,0,.25,0,.3.19Zm9.36,39.81c0,.18,0,.25-.18.3l-.53.12c-.18,0-.25,0-.3-.18l-7.1-30.21c0-.18,0-.26.18-.3l.54-.12c.18-.05.25,0,.29.18Z"/><path class="cls-2" d="M1023.28,932.67a.26.26,0,0,1-.2.23l-1.31.31c-.12,0-.19,0-.28-.12l-18-27.65c-.1-.17-.07-.3.11-.34l.6-.14c.12,0,.19,0,.28.12L1022,931.89l.3-.07,4.07-31.9c0-.13.07-.2.19-.23l.54-.13c.18,0,.27.07.25.26Z"/><path class="cls-2" d="M1061.56,906.12c0,.18,0,.25-.18.3l-24.49,5.75c1.36,8.23,7.24,15,16.06,13a11.72,11.72,0,0,0,9.21-8.7c0-.13.08-.21.2-.24l.65-.15c.18,0,.27.06.25.26a12.7,12.7,0,0,1-10.07,9.85c-8.29,2-14.93-3.28-17-12.22-2.24-9.54,2-17,9.68-18.76S1059.58,898.22,1061.56,906.12Zm-24.79,5,23.6-5.55c-2-6.81-7.56-11-14.29-9.4C1039.76,897.66,1035.83,903.43,1036.77,911.13Z"/><path class="cls-2" d="M961,1006.32a12.78,12.78,0,0,1-12.41-9.83l-30.11-128A12.79,12.79,0,0,1,928,853.12L1056,823a12.78,12.78,0,0,1,15.33,9.49l30.11,128a12.8,12.8,0,0,1-9.5,15.33l-128,30.1A12.65,12.65,0,0,1,961,1006.32Zm97.93-182.14a10.88,10.88,0,0,0-2.58.3l-128,30.1a11.29,11.29,0,0,0-8.38,13.53l30.11,128a11.26,11.26,0,0,0,13.52,8.37l128-30.1a11.27,11.27,0,0,0,8.38-13.53l-30.11-128A11.27,11.27,0,0,0,1058.92,824.18Z"/></g><g id="Id"><path class="cls-2" d="M1722.63,335.9c.06.31,0,.43-.32.49l-1.12.24c-.3.06-.42,0-.49-.32l-14.92-71.76c-.06-.31,0-.43.32-.49l.92-.2c.3-.06.42,0,.49.33Z"/><path class="cls-2" d="M1787.37,322.35c.06.3,0,.43-.32.49l-.92.19c-.3.06-.42,0-.49-.32l-1.7-8.12h-.42c-2.93,6.75-9.66,11.55-17.37,13.16-14,2.94-25.29-5.93-28.56-21.56-3.38-16.13,3.91-28.88,17.41-31.71,7.91-1.65,15.29.72,21.38,6l.36-.29-6.44-30.74c-.06-.31,0-.43.32-.49l.92-.19c.3-.07.43,0,.49.32Zm-48.07-16.63c3,14.41,13.4,23,26.59,20.28,7.91-1.66,14.84-7,17.27-15.16l-5.59-26.69c-6.16-6.65-13.89-9.69-22.21-7.95C1742.88,278.81,1736.15,290.71,1739.3,305.72Z"/><path class="cls-2" d="M1693.23,388.18A12.76,12.76,0,0,1,1680.76,378l-27.57-131.66a12.78,12.78,0,0,1,9.87-15.09l131.66-27.57a12.76,12.76,0,0,1,15.09,9.87l27.57,131.66a12.78,12.78,0,0,1-9.87,15.09l-.15-.73.15.73-131.66,27.57A13,13,0,0,1,1693.23,388.18ZM1797.33,205a10.64,10.64,0,0,0-2.3.24l-131.67,27.56a11.28,11.28,0,0,0-8.7,13.32l27.56,131.66a11.26,11.26,0,0,0,13.32,8.71l131.67-27.57a11.29,11.29,0,0,0,8.7-13.31l-27.57-131.67A11.26,11.26,0,0,0,1797.33,205Z"/></g><g id="XD"><path class="cls-2" d="M178.51,941.89a.89.89,0,0,1-.45-.45l-10.83-49.62-43.7,25.87a.86.86,0,0,1-.63,0l-1.29-.56c-.32-.14-.33-.4,0-.62L166.77,890l-10.49-48.07c-.07-.42.13-.59.45-.44l1,.41a.87.87,0,0,1,.44.45l10.5,47.19L210.21,865a.92.92,0,0,1,.63,0l1,.42c.32.14.34.4,0,.63L169,891.31,180.24,942c.07.41-.13.58-.45.44Z"/><path class="cls-2" d="M250.51,882.29c20.54,8.94,26.69,29.56,17.05,51.69-9.92,22.78-30.56,33.38-51.2,24.4L194.76,949c-.32-.14-.38-.3-.24-.62l33-75.56c.14-.32.29-.38.61-.24Zm-33.85,73.93c19.68,8.57,39.59-1.21,49-22.92,9.22-21.18,2.95-40.95-16.51-49.43L228.76,875,197.2,947.74Z"/><path class="cls-2" d="M239.4,1022.45a12.59,12.59,0,0,1-5.06-1.06L92.84,959.77A12.77,12.77,0,0,1,86.24,943l61.62-141.51a12.77,12.77,0,0,1,16.78-6.59l141.51,61.62a12.77,12.77,0,0,1,6.59,16.78l-61.62,141.5a12.69,12.69,0,0,1-7,6.77A13,13,0,0,1,239.4,1022.45ZM159.57,795.33a11.25,11.25,0,0,0-10.33,6.75L87.61,943.59a11.28,11.28,0,0,0,5.83,14.8L234.94,1020a11.28,11.28,0,0,0,14.8-5.83l61.63-141.5a11.26,11.26,0,0,0-5.82-14.8L164,796.26A11.23,11.23,0,0,0,159.57,795.33Z"/></g><text class="cls-3" transform="matrix(0.99, 0.17, -0.17, 0.99, 1328.04, 98.82)">&lt;HTML&gt;</text><text class="cls-4" transform="matrix(0.97, -0.23, 0.23, 0.97, 1245.54, 942.63)">select SKILLS from SELF<tspan x="0" y="69.06">where LEVEL = ‘Great’;</tspan></text><text class="cls-5" transform="matrix(1, -0.07, 0.07, 1, 444.48, 954.6)">void main();</text><text class="cls-5" transform="translate(737.45 391.08) rotate(3.62)">function (callback);</text><text class="cls-5" transform="translate(518.37 187.32) rotate(-6.31)">return ‘A Great Human’;</text><g id="Java"><path class="cls-2" d="M1246.35,273.72c-16.23-.68-31.17-8.76-42.08-22.75s-16.46-32.19-15.66-51.28v-.24l121.48,5.1v.23c-.8,19.09-7.86,36.77-19.89,49.79S1262.59,274.4,1246.35,273.72Zm-57.28-73.78c-.74,18.89,4.78,36.91,15.57,50.74s25.64,21.9,41.73,22.58,31.54-6.08,43.48-19,18.92-30.37,19.76-49.26Z"/><path class="cls-2" d="M1296.55,291.34l-101.69-4.26a9,9,0,0,1-8.62-9.38v-.23l119.68,5v.23A9,9,0,0,1,1296.55,291.34ZM1186.7,278a8.56,8.56,0,0,0,8.18,8.65l101.69,4.26a8.55,8.55,0,0,0,8.87-7.94Z"/><path class="cls-2" d="M1313.22,217.62c3.13-3.42,8.7-3,12.4-.76,4.65,2.76,5.88,8.42,5.1,13.44-1.51,9.65-8.78,17.85-17,22.67a41.49,41.49,0,0,1-16.07,5.4c-.33,0-.21.55.12.51a41,41,0,0,0,27.4-15.22,29.56,29.56,0,0,0,6.1-13.69c.68-4.94-.6-10.47-5-13.32-3.9-2.53-10-3.12-13.42.58-.22.25.13.64.36.39Z"/><path class="cls-2" d="M1226.39,194.51c-4.45-7.13-5.2-17.8,1.23-24.06,3.31-3.21,7.83-4.64,11.77-6.86a17.14,17.14,0,0,0,8-8.94c1.8-4.74,1.84-10,1.81-15,0-.34-.53-.37-.53,0,0,4.73,0,9.63-1.54,14.15a15.82,15.82,0,0,1-3.82,6.28,22.66,22.66,0,0,1-5.72,3.86c-3.84,1.95-8.06,3.53-11,6.81a17.22,17.22,0,0,0-4.16,10.67,23.16,23.16,0,0,0,3.49,13.32c.18.29.65,0,.47-.25Z"/><path class="cls-2" d="M1257,195.62a17.34,17.34,0,0,1,.41-22.58c2.68-3,6.23-4.28,9.62-6.2a12.53,12.53,0,0,0,6.16-7.47c1.14-3.88.8-8,.39-12,0-.33-.55-.21-.51.12.4,3.92.74,8.07-.43,11.89a11.37,11.37,0,0,1-3.13,5.09,21.23,21.23,0,0,1-5.14,3.16c-3.37,1.66-6.38,3.52-8.61,6.62a17.69,17.69,0,0,0-3.33,10.32,18.09,18.09,0,0,0,4.19,11.42c.21.26.6-.1.38-.36Z"/></g><rect class="cls-6" width="1920" height="1080"/></g></svg>